<?xml version="1.0" encoding="utf-8"?>
<!-- Generator: Adobe Illustrator 15.1.0, SVG Export Plug-In . SVG Version: 6.00 Build 0)  -->
<!DOCTYPE svg PUBLIC "-//W3C//DTD SVG 1.1//EN" "http://www.w3.org/Graphics/SVG/1.1/DTD/svg11.dtd">
<svg version="1.1" id="svg-lt" xmlns="http://www.w3.org/2000/svg" xmlns:xlink="http://www.w3.org/1999/xlink" x="0px"
	 y="0px" viewBox="0 0 36.691 160.221" enable-background="new 0 0 36.691 160.221"
	 xml:space="preserve">
<g>
	<path d="M6.4,133.627l5.346,0.942l-0.08,0.454l-5.346-0.942l-0.462,2.621l-0.473-0.084l1.004-5.695l0.473,0.084L6.4,133.627z"/>
	<path d="M12.261,131.994c-0.144,0.811-0.934,1.334-1.785,1.185c-0.829-0.146-1.381-0.922-1.236-1.74
		c0.138-0.781,0.942-1.311,1.764-1.165C11.84,130.421,12.402,131.19,12.261,131.994z M9.673,131.522
		c-0.102,0.58,0.288,1.133,0.885,1.237c0.604,0.106,1.165-0.271,1.267-0.843c0.101-0.572-0.298-1.119-0.895-1.225
		C10.349,130.59,9.771,130.971,9.673,131.522z"/>
	<path d="M13.016,127.371l-0.335-0.059c0.216,0.305,0.288,0.663,0.216,1.075c-0.14,0.79-0.751,1.193-1.58,1.047l-1.614-0.284
		l0.073-0.419l1.614,0.285c0.589,0.104,0.972-0.146,1.069-0.699c0.104-0.594-0.229-1.084-0.797-1.185l-1.556-0.274l0.073-0.42
		l2.909,0.514L13.016,127.371z"/>
	<path d="M13.7,123.486l-1.615-0.285c-0.588-0.104-0.97,0.146-1.067,0.698c-0.104,0.586,0.229,1.085,0.797,1.186l1.556,0.274
		l-0.074,0.419l-5.818-1.026l0.074-0.419l3.244,0.572c-0.215-0.312-0.288-0.664-0.215-1.076c0.139-0.789,0.75-1.193,1.578-1.047
		l1.615,0.284L13.7,123.486z"/>
	<path d="M14.243,120.75c-0.143,0.811-0.933,1.335-1.784,1.185c-0.83-0.146-1.382-0.921-1.237-1.739
		c0.138-0.782,0.942-1.31,1.764-1.165C13.822,119.178,14.385,119.946,14.243,120.75z M11.656,120.279
		c-0.103,0.58,0.287,1.132,0.884,1.237c0.604,0.106,1.165-0.27,1.267-0.844c0.101-0.572-0.298-1.119-0.895-1.225
		C12.331,119.347,11.753,119.728,11.656,120.279z"/>
	<path d="M14.998,116.127l-0.335-0.059c0.216,0.305,0.289,0.663,0.216,1.076c-0.139,0.789-0.751,1.192-1.58,1.046l-1.614-0.284
		l0.074-0.419l1.614,0.284c0.589,0.104,0.971-0.146,1.068-0.698c0.104-0.594-0.229-1.084-0.797-1.185l-1.556-0.274l0.073-0.419
		l2.91,0.513L14.998,116.127z"/>
	<path d="M15.956,111.037c-0.07,0.398-0.304,0.745-0.635,0.962l3.302,0.582l-0.074,0.418l-5.818-1.025l0.074-0.418l0.393,0.068
		c-0.243-0.324-0.337-0.723-0.267-1.121c0.141-0.796,0.938-1.326,1.767-1.18C15.534,109.471,16.097,110.24,15.956,111.037z
		 M13.367,110.573c-0.103,0.58,0.288,1.132,0.885,1.237c0.604,0.106,1.165-0.271,1.266-0.844c0.102-0.573-0.298-1.119-0.895-1.224
		C14.042,109.64,13.465,110.021,13.367,110.573z"/>
	<path d="M14.941,106.239c-0.462-0.018-0.863,0.301-0.94,0.742c-0.087,0.488,0.264,0.969,0.772,1.059l1.601,0.282l-0.073,0.419
		l-2.91-0.514l0.074-0.418l0.306,0.053c-0.195-0.294-0.265-0.623-0.205-0.958c0.113-0.643,0.68-1.098,1.377-1.097L14.941,106.239z"
		/>
	<path d="M17.156,104.23c-0.144,0.811-0.934,1.335-1.785,1.185c-0.829-0.146-1.381-0.922-1.236-1.739
		c0.138-0.782,0.942-1.311,1.764-1.165C16.735,102.657,17.298,103.427,17.156,104.23z M14.568,103.76
		c-0.102,0.58,0.288,1.132,0.885,1.237c0.604,0.106,1.165-0.271,1.267-0.844c0.101-0.572-0.298-1.119-0.896-1.225
		C15.244,102.827,14.666,103.208,14.568,103.76z"/>
	<path d="M13.55,100.654c-0.038,0.217-0.251,0.359-0.478,0.319c-0.225-0.039-0.375-0.246-0.336-0.47
		c0.037-0.21,0.256-0.351,0.474-0.312C13.437,100.231,13.588,100.438,13.55,100.654z M20.317,102.972
		c-0.128,0.727-0.818,1.189-1.584,1.068l0.073-0.42c0.527,0.079,0.986-0.229,1.074-0.726c0.085-0.481-0.252-0.952-0.762-1.042
		l-4.465-0.787l0.074-0.42l4.465,0.787C19.943,101.565,20.444,102.253,20.317,102.972z"/>
	<path d="M16.992,96.946l-0.436,2.474c0.562,0.041,1.055-0.326,1.148-0.856c0.068-0.385-0.091-0.766-0.406-1.016l0.241-0.347
		c0.478,0.358,0.699,0.887,0.602,1.438c-0.142,0.804-0.933,1.334-1.77,1.188c-0.836-0.148-1.397-0.917-1.256-1.721
		c0.141-0.797,0.933-1.334,1.754-1.189C16.9,96.923,16.943,96.931,16.992,96.946z M15.552,98.183
		c-0.08,0.455,0.138,0.875,0.575,1.118l0.348-1.971C15.998,97.397,15.632,97.729,15.552,98.183z"/>
	<path d="M18.8,94.908c-0.142,0.804-0.933,1.334-1.77,1.187c-0.836-0.147-1.397-0.916-1.256-1.72
		c0.099-0.56,0.495-0.979,1.073-1.158l0.137,0.413c-0.418,0.121-0.704,0.424-0.774,0.822c-0.101,0.572,0.297,1.118,0.894,1.223
		c0.597,0.105,1.158-0.271,1.26-0.844c0.076-0.433-0.121-0.843-0.527-1.094l0.215-0.366C18.616,93.694,18.908,94.293,18.8,94.908z"
		/>
	<path d="M16.537,91.022l2.801,0.493l-0.074,0.42l-2.801-0.494l-0.193,1.097l-0.436-0.076l0.193-1.098l-1.404-0.247l0.074-0.419
		l1.404,0.247l0.193-1.097l0.436,0.076L16.537,91.022z"/>
	<path d="M16.43,84.317c-0.037,0.216-0.25,0.359-0.477,0.318c-0.225-0.039-0.375-0.246-0.336-0.47
		c0.037-0.209,0.256-0.351,0.474-0.312C16.317,83.894,16.469,84.101,16.43,84.317z M20.444,85.241l-2.909-0.514l0.073-0.419
		l2.909,0.513L20.444,85.241z"/>
	<path d="M20.764,83.431l-5.818-1.025l0.073-0.42l5.818,1.026L20.764,83.431z"/>
	<path d="M21.058,81.761l-5.818-1.026l0.074-0.419l5.818,1.025L21.058,81.761z"/>
	<path d="M21.736,77.91l-0.335-0.059c0.217,0.304,0.289,0.663,0.217,1.075c-0.14,0.79-0.751,1.193-1.581,1.047l-1.613-0.285
		l0.073-0.418l1.614,0.284c0.589,0.104,0.972-0.146,1.068-0.698c0.105-0.594-0.229-1.084-0.797-1.185l-1.556-0.274l0.074-0.42
		l2.909,0.514L21.736,77.91z"/>
	<path d="M22.255,75.314c-0.108,0.614-0.403,1.009-0.944,1.274l-0.264-0.342c0.47-0.242,0.686-0.521,0.771-1.003
		c0.083-0.476-0.04-0.836-0.317-0.885c-0.225-0.04-0.319,0.066-0.559,0.622c-0.41,0.965-0.585,1.144-1.065,1.059
		c-0.53-0.094-0.769-0.568-0.643-1.28c0.094-0.531,0.267-0.796,0.68-1.054l0.237,0.357c-0.305,0.199-0.41,0.367-0.485,0.794
		c-0.076,0.433,0.017,0.716,0.256,0.759c0.218,0.038,0.306-0.076,0.608-0.815c0.305-0.746,0.543-0.949,1.023-0.864
		C22.119,74.036,22.387,74.566,22.255,75.314z"/>
	<path d="M19.943,71.7l2.801,0.494l-0.073,0.419L19.87,72.12l-0.193,1.096l-0.436-0.076l0.193-1.097l-1.404-0.247l0.073-0.42
		l1.404,0.248l0.193-1.098l0.436,0.077L19.943,71.7z"/>
	<path d="M21.726,67.764c-0.462-0.017-0.863,0.302-0.94,0.741c-0.086,0.49,0.264,0.969,0.772,1.059l1.601,0.282l-0.073,0.42
		l-2.909-0.513l0.073-0.42l0.306,0.054c-0.195-0.294-0.265-0.622-0.205-0.958c0.113-0.643,0.68-1.098,1.377-1.097L21.726,67.764z"/>
	<path d="M24.058,64.746l-0.393-0.069c0.237,0.314,0.337,0.729,0.268,1.12c-0.14,0.797-0.932,1.327-1.769,1.18
		c-0.829-0.146-1.396-0.917-1.257-1.713c0.07-0.398,0.295-0.74,0.634-0.962l-0.393-0.068l0.074-0.42l2.909,0.513L24.058,64.746z
		 M21.347,65.319c-0.103,0.58,0.288,1.131,0.885,1.236c0.604,0.106,1.165-0.27,1.267-0.842c0.101-0.574-0.299-1.119-0.896-1.225
		C22.021,64.387,21.444,64.768,21.347,65.319z"/>
	<path d="M21.721,61.624l2.801,0.494l-0.074,0.419l-2.801-0.494l-0.193,1.097l-0.436-0.076l0.193-1.098l-1.404-0.247l0.074-0.419
		l1.404,0.248l0.193-1.098l0.436,0.076L21.721,61.624z"/>
	<path d="M20.818,59.434c-0.039,0.216-0.251,0.358-0.478,0.319c-0.225-0.04-0.376-0.247-0.336-0.471
		c0.037-0.209,0.256-0.351,0.474-0.312C20.705,59.01,20.856,59.217,20.818,59.434z M24.832,60.357l-2.909-0.513l0.073-0.42
		l2.909,0.513L24.832,60.357z"/>
	<path d="M25.393,57.516c-0.143,0.812-0.933,1.335-1.784,1.185c-0.829-0.146-1.381-0.921-1.237-1.738
		c0.139-0.783,0.943-1.311,1.765-1.166C24.973,55.943,25.535,56.713,25.393,57.516z M22.806,57.046
		c-0.103,0.579,0.288,1.131,0.885,1.236c0.604,0.106,1.165-0.27,1.267-0.844c0.101-0.572-0.299-1.118-0.896-1.224
		C23.48,56.112,22.903,56.493,22.806,57.046z"/>
	<path d="M26.147,52.894l-1.615-0.285c-0.588-0.104-0.97,0.146-1.067,0.698c-0.104,0.587,0.229,1.085,0.797,1.186l1.556,0.274
		l-0.073,0.419l-2.91-0.513l0.074-0.42l0.335,0.06c-0.215-0.312-0.288-0.663-0.215-1.075c0.139-0.79,0.75-1.193,1.578-1.048
		l1.615,0.285L26.147,52.894z"/>
	<path d="M22.181,45.998c-0.283,0.079-0.478,0.29-0.526,0.563c-0.068,0.391,0.211,0.764,0.618,0.836l1.462,0.258l0.175-0.992
		l0.436,0.076l-0.175,0.992l2.801,0.494l-0.074,0.419l-2.801-0.493l-0.163,0.93l-0.436-0.077l0.163-0.93l-1.461-0.258
		c-0.648-0.114-1.091-0.711-0.98-1.333c0.073-0.419,0.371-0.748,0.809-0.888L22.181,45.998z"/>
	<path d="M27.638,44.445l-0.393-0.069c0.237,0.315,0.336,0.729,0.268,1.121c-0.141,0.797-0.932,1.326-1.769,1.18
		c-0.829-0.146-1.397-0.916-1.257-1.713c0.07-0.398,0.294-0.74,0.634-0.962l-0.393-0.069l0.073-0.42l2.909,0.514L27.638,44.445z
		 M24.926,45.02c-0.102,0.579,0.288,1.131,0.885,1.236c0.604,0.106,1.166-0.271,1.267-0.843c0.101-0.573-0.298-1.119-0.895-1.225
		C25.602,44.087,25.023,44.468,24.926,45.02z"/>
	<path d="M28.298,40.699l-1.615-0.284c-0.588-0.104-0.97,0.145-1.067,0.697c-0.104,0.587,0.229,1.086,0.797,1.186l1.556,0.274
		l-0.074,0.419l-2.909-0.513l0.074-0.419l0.335,0.059c-0.215-0.312-0.288-0.663-0.215-1.075c0.139-0.79,0.75-1.194,1.578-1.048
		l1.615,0.285L28.298,40.699z"/>
	<path d="M28.87,37.796c-0.068,0.392-0.304,0.746-0.635,0.961l0.393,0.069l-0.073,0.42l-5.818-1.026l0.073-0.42l3.302,0.583
		c-0.243-0.323-0.337-0.722-0.267-1.12c0.141-0.797,0.931-1.328,1.767-1.18C28.448,36.229,29.011,36.999,28.87,37.796z
		 M26.281,37.332c-0.102,0.58,0.288,1.132,0.885,1.236c0.604,0.106,1.166-0.27,1.267-0.843c0.101-0.572-0.298-1.118-0.895-1.224
		C26.957,36.399,26.379,36.78,26.281,37.332z"/>
	<path d="M29.501,34.218c-0.143,0.812-0.933,1.334-1.784,1.185c-0.829-0.146-1.382-0.921-1.237-1.738
		c0.138-0.782,0.943-1.312,1.765-1.166C29.081,32.646,29.643,33.415,29.501,34.218z M26.914,33.747
		c-0.103,0.58,0.287,1.133,0.885,1.237c0.604,0.106,1.165-0.271,1.266-0.843c0.102-0.573-0.298-1.119-0.895-1.225
		C27.589,32.814,27.011,33.195,26.914,33.747z"/>
	<path d="M30.139,30.604c-0.144,0.812-0.934,1.334-1.785,1.185c-0.829-0.146-1.381-0.921-1.237-1.738
		c0.139-0.782,0.943-1.312,1.765-1.166C29.718,29.032,30.28,29.802,30.139,30.604z M27.551,30.134
		c-0.103,0.58,0.288,1.133,0.885,1.237c0.604,0.106,1.165-0.271,1.267-0.843c0.101-0.573-0.299-1.119-0.896-1.225
		C28.226,29.201,27.648,29.582,27.551,30.134z"/>
	<path d="M30.943,25.696l-1.853,1.063l0.446,0.915l1.025,0.181l-0.074,0.419l-5.818-1.025l0.074-0.42l4.263,0.752l-1.026-2.09
		l0.129-0.734l0.786,1.615l2.146-1.229L30.943,25.696z"/>
	<path d="M31.299,24.022c-0.042,0.237-0.272,0.392-0.52,0.348c-0.239-0.042-0.403-0.266-0.36-0.51
		c0.04-0.224,0.271-0.377,0.51-0.336C31.176,23.568,31.34,23.792,31.299,24.022z"/>
</g>
</svg>
