<?xml version="1.0" encoding="utf-8"?>
<!-- Generator: Adobe Illustrator 15.1.0, SVG Export Plug-In . SVG Version: 6.00 Build 0)  -->
<!DOCTYPE svg PUBLIC "-//W3C//DTD SVG 1.1//EN" "http://www.w3.org/Graphics/SVG/1.1/DTD/svg11.dtd">
<svg version="1.1" id="svg-cb" xmlns="http://www.w3.org/2000/svg" xmlns:xlink="http://www.w3.org/1999/xlink" x="0px"
	 y="0px" viewBox="0 0 141.521 57.24" enable-background="new 0 0 141.521 57.24"
	 xml:space="preserve">
<g>
	<g>
		<path d="M20.183,24.313c0.274-1.349,0.629-2.675,1.063-3.98c0.044-0.128,0.123-0.231,0.237-0.311
			c0.115-0.079,0.25-0.103,0.4-0.072c0.135,0.028,0.237,0.104,0.305,0.23s0.088,0.26,0.059,0.399
			c-0.012,0.057-0.055,0.223-0.137,0.499c-0.078,0.276-0.174,0.605-0.283,0.987c-0.111,0.382-0.222,0.789-0.333,1.22
			c-0.11,0.43-0.204,0.829-0.278,1.193c-0.102,0.497-0.135,0.906-0.103,1.229s0.106,0.584,0.22,0.783
			c0.114,0.198,0.248,0.343,0.403,0.433c0.155,0.091,0.31,0.151,0.462,0.182c0.25,0.052,0.531,0.012,0.838-0.121
			c0.309-0.133,0.639-0.339,0.99-0.618s0.719-0.626,1.103-1.041c0.384-0.413,0.774-0.883,1.171-1.406
			c0.064-0.084,0.141-0.144,0.232-0.18c0.091-0.034,0.188-0.042,0.287-0.021c0.143,0.029,0.25,0.109,0.322,0.241
			c0.07,0.131,0.094,0.263,0.066,0.394c-0.02,0.094-0.054,0.169-0.102,0.229c-0.152,0.193-0.341,0.428-0.564,0.703
			c-0.225,0.276-0.475,0.557-0.748,0.843c-0.273,0.285-0.566,0.564-0.879,0.837s-0.635,0.51-0.966,0.71
			c-0.331,0.201-0.666,0.35-1.005,0.447c-0.336,0.097-0.663,0.113-0.978,0.05c-0.404-0.083-0.741-0.244-1.011-0.484
			s-0.479-0.53-0.629-0.873s-0.236-0.729-0.258-1.156C20.05,25.229,20.087,24.781,20.183,24.313z M24.04,16.529
			c-0.072,0.355-0.252,0.633-0.541,0.833c-0.289,0.199-0.604,0.265-0.943,0.195c-0.342-0.07-0.607-0.253-0.795-0.55
			c-0.188-0.296-0.246-0.622-0.174-0.979c0.037-0.178,0.102-0.338,0.195-0.479c0.096-0.143,0.21-0.26,0.348-0.354
			c0.135-0.094,0.285-0.158,0.445-0.194c0.162-0.035,0.328-0.036,0.5-0.001c0.17,0.034,0.323,0.101,0.459,0.196
			c0.133,0.096,0.246,0.214,0.334,0.354s0.148,0.293,0.18,0.46S24.077,16.352,24.04,16.529z M23.286,16.375
			c0.027-0.131,0.002-0.255-0.07-0.373c-0.076-0.117-0.176-0.188-0.301-0.214c-0.127-0.026-0.244,0.001-0.355,0.081
			c-0.109,0.08-0.177,0.186-0.203,0.317c-0.027,0.131-0.006,0.252,0.064,0.364c0.072,0.111,0.17,0.181,0.297,0.206
			c0.125,0.025,0.245,0.001,0.359-0.073C23.189,16.609,23.261,16.506,23.286,16.375z"/>
		<path d="M34.866,26.16c-0.073,0.092-0.205,0.26-0.391,0.506c-0.185,0.245-0.422,0.516-0.713,0.812
			c-0.289,0.297-0.624,0.597-1.003,0.9c-0.381,0.303-0.799,0.565-1.257,0.789c-0.457,0.225-0.951,0.385-1.479,0.481
			c-0.531,0.097-1.084,0.087-1.659-0.03c-0.512-0.104-0.946-0.292-1.304-0.564c-0.355-0.272-0.637-0.613-0.844-1.021
			s-0.335-0.865-0.381-1.372c-0.047-0.506-0.012-1.05,0.106-1.63c0.114-0.562,0.298-1.072,0.551-1.534
			c0.253-0.46,0.548-0.846,0.888-1.156c0.34-0.312,0.707-0.537,1.1-0.676c0.393-0.14,0.787-0.169,1.184-0.088
			c0.297,0.06,0.555,0.169,0.775,0.325c0.221,0.157,0.396,0.342,0.525,0.554c0.131,0.211,0.221,0.435,0.271,0.669
			s0.055,0.459,0.011,0.675c-0.042,0.206-0.106,0.393-0.19,0.561c-0.086,0.168-0.182,0.312-0.286,0.432
			c-0.104,0.12-0.212,0.211-0.328,0.271c-0.114,0.059-0.222,0.079-0.321,0.059c-0.152-0.031-0.266-0.107-0.338-0.23
			c-0.074-0.122-0.096-0.258-0.064-0.407c0.015-0.075,0.043-0.138,0.086-0.188s0.092-0.101,0.145-0.154
			c0.053-0.052,0.104-0.119,0.152-0.202c0.051-0.082,0.089-0.194,0.117-0.335c0.04-0.195-0.01-0.392-0.154-0.586
			c-0.143-0.195-0.349-0.32-0.618-0.375c-0.252-0.051-0.509-0.021-0.769,0.092c-0.262,0.113-0.506,0.285-0.73,0.518
			c-0.227,0.231-0.426,0.518-0.604,0.856c-0.176,0.34-0.305,0.711-0.387,1.113c-0.078,0.384-0.107,0.758-0.088,1.123
			c0.02,0.364,0.09,0.698,0.216,1.002s0.31,0.562,0.552,0.777c0.24,0.215,0.551,0.36,0.928,0.438
			c0.486,0.099,0.954,0.099,1.404,0.001c0.451-0.099,0.875-0.254,1.273-0.466c0.398-0.211,0.762-0.456,1.092-0.735
			c0.327-0.279,0.613-0.548,0.857-0.805c0.245-0.258,0.441-0.486,0.588-0.686c0.148-0.199,0.238-0.324,0.268-0.377
			c0.055-0.086,0.131-0.146,0.227-0.181c0.096-0.033,0.193-0.041,0.291-0.021c0.154,0.031,0.266,0.112,0.338,0.244
			c0.07,0.131,0.092,0.268,0.062,0.407C34.954,26.003,34.923,26.074,34.866,26.16z"/>
		<path d="M34.411,28.875c0.208-0.288,0.445-0.599,0.709-0.931c0.264-0.331,0.543-0.669,0.838-1.015
			c0.295-0.344,0.603-0.683,0.924-1.018c0.32-0.335,0.646-0.644,0.975-0.928c0.328-0.274,0.639-0.457,0.933-0.549
			c0.296-0.091,0.56-0.113,0.792-0.065c0.234,0.048,0.43,0.138,0.584,0.271c0.156,0.135,0.271,0.298,0.35,0.488
			c0.08,0.191,0.125,0.406,0.137,0.643s-0.008,0.485-0.061,0.748c-0.045,0.215-0.123,0.499-0.236,0.851
			c-0.113,0.354-0.211,0.726-0.291,1.118c-0.046,0.226-0.08,0.45-0.102,0.674c-0.023,0.225-0.023,0.43,0.001,0.615
			c0.023,0.185,0.081,0.343,0.177,0.475c0.095,0.131,0.236,0.216,0.426,0.254c0.215,0.044,0.444,0.025,0.686-0.058
			c0.242-0.082,0.486-0.208,0.736-0.376c0.25-0.169,0.495-0.362,0.736-0.582c0.242-0.218,0.464-0.441,0.67-0.668
			c0.205-0.227,0.39-0.447,0.555-0.662c0.166-0.215,0.301-0.395,0.404-0.539c0.135-0.197,0.312-0.272,0.537-0.227
			c0.154,0.031,0.264,0.112,0.33,0.242c0.066,0.131,0.088,0.262,0.061,0.393c-0.016,0.075-0.043,0.142-0.082,0.202
			c-0.053,0.068-0.152,0.209-0.305,0.421c-0.15,0.213-0.346,0.456-0.583,0.729s-0.509,0.555-0.811,0.844
			c-0.302,0.29-0.624,0.549-0.966,0.776c-0.341,0.228-0.693,0.4-1.059,0.517c-0.365,0.115-0.729,0.137-1.086,0.063
			c-0.414-0.085-0.729-0.243-0.943-0.477c-0.215-0.234-0.363-0.506-0.445-0.814c-0.082-0.31-0.112-0.642-0.091-0.999
			c0.021-0.355,0.065-0.698,0.132-1.025c0.034-0.169,0.078-0.348,0.129-0.537c0.053-0.188,0.108-0.375,0.163-0.56
			c0.057-0.183,0.108-0.355,0.155-0.516c0.047-0.161,0.082-0.299,0.104-0.411c0.06-0.29,0.062-0.494,0.005-0.613
			c-0.055-0.118-0.132-0.188-0.231-0.208c-0.144-0.029-0.325,0.024-0.545,0.16s-0.458,0.323-0.718,0.563
			c-0.26,0.239-0.525,0.515-0.799,0.824c-0.275,0.31-0.541,0.619-0.801,0.927c-0.258,0.308-0.496,0.604-0.713,0.886
			s-0.396,0.517-0.536,0.703c-0.269,0.354-0.514,0.58-0.735,0.677c-0.221,0.096-0.406,0.129-0.559,0.098
			c-0.279-0.057-0.47-0.215-0.571-0.475c-0.103-0.26-0.118-0.553-0.052-0.881l0.18-0.885c0.36-1.769,0.705-3.456,1.037-5.061
			c0.33-1.604,0.656-3.093,0.978-4.466c0.322-1.372,0.644-2.608,0.966-3.708s0.658-2.025,1.007-2.778
			c0.35-0.753,0.714-1.314,1.095-1.686c0.379-0.371,0.789-0.513,1.23-0.423c0.377,0.077,0.673,0.249,0.891,0.518
			c0.217,0.269,0.369,0.604,0.455,1.007s0.115,0.856,0.088,1.363c-0.029,0.506-0.098,1.03-0.208,1.573
			c-0.226,1.104-0.542,2.169-0.952,3.192c-0.408,1.023-0.877,2.007-1.408,2.953c-0.528,0.944-1.105,1.854-1.732,2.725
			c-0.627,0.872-1.27,1.714-1.932,2.524c-0.034,0.168-0.075,0.37-0.123,0.604c-0.047,0.234-0.095,0.469-0.143,0.702
			c-0.047,0.234-0.092,0.454-0.135,0.66c-0.041,0.206-0.074,0.37-0.1,0.491L34.411,28.875z M35.466,23.693
			c0.553-0.784,1.066-1.555,1.545-2.311c0.476-0.756,0.908-1.52,1.293-2.289c0.387-0.77,0.727-1.561,1.023-2.373
			c0.297-0.812,0.535-1.672,0.721-2.58c0.03-0.149,0.072-0.39,0.126-0.721c0.054-0.329,0.081-0.67,0.081-1.021
			c0.002-0.352-0.041-0.667-0.129-0.948s-0.258-0.447-0.51-0.498c-0.198-0.041-0.396,0.062-0.596,0.31
			c-0.201,0.247-0.403,0.596-0.607,1.047c-0.203,0.451-0.406,0.982-0.605,1.595c-0.199,0.613-0.393,1.266-0.58,1.958
			c-0.188,0.693-0.368,1.408-0.541,2.143c-0.173,0.735-0.336,1.45-0.486,2.146c-0.15,0.696-0.289,1.348-0.412,1.956
			C35.664,22.716,35.557,23.244,35.466,23.693z"/>
		<path d="M44.218,29.203c0.274-1.349,0.629-2.675,1.063-3.98c0.044-0.128,0.123-0.231,0.237-0.31
			c0.115-0.079,0.248-0.104,0.4-0.072c0.135,0.027,0.237,0.104,0.305,0.23s0.088,0.259,0.059,0.399
			c-0.012,0.056-0.055,0.222-0.137,0.499c-0.078,0.276-0.174,0.604-0.283,0.987c-0.111,0.382-0.222,0.788-0.334,1.219
			c-0.109,0.431-0.203,0.829-0.277,1.193c-0.102,0.497-0.135,0.906-0.103,1.229c0.032,0.324,0.106,0.585,0.22,0.783
			c0.113,0.199,0.248,0.343,0.403,0.433c0.155,0.091,0.31,0.151,0.462,0.183c0.25,0.051,0.531,0.011,0.838-0.122
			c0.309-0.133,0.639-0.339,0.99-0.618c0.352-0.278,0.719-0.626,1.103-1.04s0.774-0.883,1.171-1.406
			c0.064-0.085,0.141-0.145,0.232-0.18c0.091-0.035,0.188-0.043,0.285-0.022c0.145,0.029,0.252,0.109,0.324,0.241
			c0.07,0.132,0.094,0.263,0.066,0.395c-0.02,0.094-0.054,0.169-0.102,0.228c-0.152,0.193-0.341,0.428-0.564,0.704
			c-0.225,0.275-0.475,0.556-0.748,0.842s-0.566,0.564-0.879,0.838c-0.312,0.272-0.635,0.509-0.966,0.71
			c-0.331,0.2-0.666,0.35-1.005,0.446c-0.336,0.097-0.663,0.113-0.978,0.05c-0.404-0.082-0.741-0.243-1.011-0.483
			s-0.479-0.531-0.631-0.874c-0.148-0.342-0.234-0.729-0.256-1.156C44.085,30.12,44.122,29.671,44.218,29.203z M48.075,21.419
			c-0.072,0.355-0.252,0.634-0.541,0.833s-0.604,0.265-0.943,0.195c-0.342-0.069-0.607-0.253-0.795-0.549
			c-0.188-0.297-0.246-0.623-0.174-0.979c0.037-0.178,0.102-0.338,0.195-0.479c0.096-0.142,0.21-0.26,0.348-0.354
			c0.135-0.095,0.285-0.159,0.445-0.194c0.161-0.035,0.328-0.036,0.5-0.002c0.17,0.035,0.323,0.101,0.459,0.196
			c0.133,0.097,0.246,0.214,0.334,0.354s0.148,0.293,0.18,0.461C48.114,21.068,48.112,21.241,48.075,21.419z M47.321,21.266
			c0.027-0.132,0.002-0.256-0.07-0.373c-0.076-0.117-0.176-0.189-0.301-0.215c-0.127-0.025-0.246,0.002-0.355,0.081
			c-0.109,0.081-0.177,0.187-0.203,0.317c-0.027,0.131-0.006,0.253,0.064,0.364c0.071,0.112,0.17,0.181,0.297,0.206
			c0.125,0.026,0.245,0.002,0.359-0.073C47.225,21.499,47.296,21.396,47.321,21.266z"/>
		<path d="M72.149,34.886c0.273-1.349,0.628-2.675,1.062-3.98c0.045-0.128,0.123-0.231,0.238-0.31
			c0.114-0.079,0.248-0.104,0.4-0.072c0.135,0.027,0.236,0.104,0.305,0.23c0.067,0.126,0.088,0.259,0.059,0.399
			c-0.012,0.056-0.057,0.222-0.137,0.499c-0.078,0.275-0.174,0.604-0.285,0.987c-0.109,0.382-0.221,0.788-0.332,1.219
			s-0.204,0.829-0.278,1.193c-0.101,0.497-0.136,0.906-0.103,1.229c0.033,0.324,0.105,0.585,0.22,0.783
			c0.114,0.199,0.247,0.343,0.403,0.434c0.154,0.09,0.309,0.15,0.461,0.182c0.252,0.051,0.532,0.011,0.839-0.122
			c0.309-0.133,0.638-0.339,0.989-0.618c0.353-0.278,0.721-0.626,1.104-1.04c0.385-0.414,0.774-0.883,1.171-1.406
			c0.063-0.085,0.142-0.145,0.233-0.18c0.091-0.035,0.186-0.042,0.285-0.022c0.145,0.029,0.25,0.109,0.322,0.241
			s0.094,0.263,0.067,0.394c-0.019,0.094-0.053,0.17-0.103,0.229c-0.15,0.193-0.34,0.428-0.564,0.703
			c-0.225,0.276-0.474,0.557-0.748,0.843c-0.271,0.286-0.564,0.564-0.877,0.837c-0.313,0.273-0.637,0.51-0.967,0.711
			c-0.33,0.2-0.666,0.35-1.004,0.446s-0.663,0.114-0.979,0.05c-0.403-0.082-0.74-0.243-1.012-0.484
			c-0.268-0.239-0.479-0.53-0.629-0.873c-0.148-0.342-0.235-0.729-0.256-1.156C72.017,35.803,72.054,35.354,72.149,34.886z
			 M76.007,27.102c-0.072,0.355-0.252,0.634-0.541,0.833s-0.604,0.265-0.945,0.195s-0.606-0.253-0.794-0.549
			c-0.188-0.297-0.245-0.623-0.173-0.979c0.035-0.178,0.102-0.338,0.195-0.479s0.209-0.26,0.346-0.354s0.285-0.159,0.447-0.194
			c0.161-0.036,0.327-0.036,0.499-0.001c0.17,0.034,0.323,0.1,0.458,0.195s0.246,0.214,0.336,0.354
			c0.087,0.14,0.146,0.293,0.18,0.461C76.046,26.751,76.042,26.924,76.007,27.102z M75.253,26.948
			c0.026-0.132,0.002-0.256-0.072-0.373c-0.074-0.118-0.175-0.189-0.3-0.215c-0.127-0.025-0.245,0.002-0.354,0.081
			c-0.111,0.081-0.178,0.186-0.205,0.317c-0.025,0.131-0.005,0.253,0.066,0.364c0.071,0.112,0.169,0.181,0.296,0.207
			c0.125,0.025,0.245,0,0.358-0.074S75.226,27.079,75.253,26.948z"/>
		<path d="M86.804,36.728c-0.074,0.092-0.205,0.26-0.391,0.505c-0.185,0.245-0.423,0.517-0.713,0.812
			c-0.289,0.297-0.624,0.598-1.003,0.9c-0.381,0.303-0.8,0.566-1.257,0.79s-0.951,0.384-1.48,0.48
			c-0.529,0.098-1.082,0.087-1.657-0.03c-0.512-0.104-0.946-0.292-1.304-0.564c-0.355-0.272-0.637-0.612-0.844-1.02
			c-0.207-0.408-0.335-0.865-0.381-1.372c-0.047-0.507-0.012-1.05,0.106-1.631c0.114-0.562,0.298-1.072,0.551-1.533
			c0.253-0.46,0.548-0.846,0.888-1.157s0.707-0.537,1.1-0.676c0.393-0.14,0.787-0.168,1.184-0.088
			c0.295,0.061,0.555,0.169,0.775,0.325c0.221,0.158,0.395,0.342,0.525,0.554c0.131,0.211,0.221,0.435,0.271,0.669
			s0.055,0.46,0.011,0.675c-0.042,0.206-0.106,0.394-0.192,0.561c-0.085,0.168-0.18,0.312-0.284,0.433
			c-0.104,0.12-0.212,0.21-0.328,0.27c-0.114,0.06-0.222,0.079-0.321,0.059c-0.152-0.03-0.266-0.107-0.338-0.229
			c-0.074-0.123-0.096-0.258-0.064-0.408c0.015-0.075,0.043-0.138,0.086-0.188s0.091-0.1,0.143-0.153
			c0.055-0.053,0.105-0.12,0.154-0.202c0.051-0.082,0.089-0.194,0.117-0.335c0.04-0.196-0.01-0.392-0.154-0.587
			c-0.143-0.195-0.349-0.319-0.618-0.375c-0.252-0.051-0.509-0.02-0.769,0.093c-0.262,0.112-0.506,0.284-0.73,0.517
			c-0.227,0.232-0.426,0.519-0.604,0.857c-0.176,0.339-0.307,0.71-0.388,1.112c-0.078,0.384-0.107,0.759-0.089,1.123
			c0.021,0.365,0.092,0.698,0.218,1.002s0.309,0.562,0.552,0.777c0.24,0.215,0.551,0.36,0.928,0.438
			c0.486,0.099,0.954,0.1,1.404,0.001c0.451-0.099,0.875-0.254,1.273-0.465s0.762-0.457,1.09-0.736
			c0.329-0.279,0.615-0.548,0.859-0.805c0.244-0.258,0.439-0.485,0.588-0.685s0.238-0.325,0.267-0.377
			c0.056-0.087,0.13-0.146,0.228-0.181c0.096-0.034,0.193-0.041,0.291-0.021c0.154,0.031,0.266,0.112,0.338,0.244
			c0.07,0.132,0.092,0.268,0.062,0.408C86.892,36.57,86.859,36.641,86.804,36.728z"/>
		<path d="M86.571,39.486c0.208-0.288,0.443-0.598,0.707-0.93c0.266-0.331,0.545-0.67,0.838-1.015
			c0.297-0.344,0.604-0.684,0.925-1.019c0.32-0.334,0.646-0.644,0.976-0.928c0.326-0.273,0.637-0.457,0.933-0.548
			c0.294-0.092,0.558-0.113,0.792-0.066c0.234,0.048,0.428,0.139,0.582,0.272c0.156,0.135,0.273,0.297,0.352,0.488
			s0.123,0.405,0.137,0.643c0.012,0.236-0.01,0.485-0.062,0.748c-0.043,0.215-0.123,0.499-0.236,0.851
			c-0.113,0.353-0.21,0.726-0.29,1.118c-0.046,0.225-0.081,0.449-0.102,0.674c-0.023,0.225-0.023,0.43,0.001,0.615
			c0.023,0.185,0.082,0.342,0.178,0.474c0.094,0.132,0.236,0.217,0.424,0.255c0.217,0.044,0.445,0.024,0.686-0.058
			c0.242-0.083,0.486-0.208,0.738-0.377c0.248-0.168,0.494-0.362,0.734-0.581c0.242-0.219,0.465-0.441,0.67-0.668
			s0.391-0.447,0.555-0.662c0.166-0.215,0.301-0.395,0.406-0.539c0.133-0.197,0.312-0.272,0.537-0.227
			c0.152,0.031,0.264,0.111,0.33,0.242s0.086,0.261,0.061,0.393c-0.016,0.074-0.043,0.142-0.084,0.202
			c-0.051,0.067-0.152,0.208-0.303,0.421s-0.346,0.456-0.584,0.729c-0.238,0.272-0.508,0.555-0.811,0.844
			c-0.301,0.29-0.623,0.549-0.965,0.776s-0.693,0.4-1.061,0.516c-0.365,0.115-0.727,0.137-1.086,0.064
			c-0.414-0.085-0.727-0.244-0.941-0.477c-0.215-0.234-0.363-0.506-0.445-0.815c-0.082-0.309-0.113-0.642-0.092-0.998
			s0.064-0.698,0.131-1.026c0.035-0.169,0.078-0.347,0.131-0.536s0.107-0.375,0.162-0.56c0.057-0.184,0.109-0.355,0.154-0.517
			c0.047-0.161,0.082-0.298,0.105-0.41c0.059-0.29,0.061-0.494,0.005-0.613c-0.056-0.118-0.132-0.188-0.231-0.208
			c-0.144-0.029-0.325,0.024-0.545,0.159c-0.219,0.137-0.459,0.324-0.718,0.564c-0.259,0.239-0.526,0.514-0.8,0.824
			c-0.273,0.31-0.541,0.618-0.799,0.927c-0.26,0.308-0.498,0.604-0.713,0.885c-0.218,0.283-0.396,0.518-0.537,0.703
			c-0.269,0.354-0.514,0.58-0.734,0.677s-0.406,0.13-0.561,0.099c-0.277-0.057-0.469-0.215-0.57-0.475s-0.119-0.553-0.052-0.881
			l0.181-0.885c0.359-1.77,0.705-3.456,1.036-5.061c0.331-1.605,0.657-3.094,0.978-4.466c0.322-1.373,0.645-2.609,0.965-3.708
			c0.322-1.1,0.658-2.025,1.008-2.779c0.35-0.752,0.715-1.314,1.095-1.686s0.79-0.512,1.229-0.422
			c0.377,0.076,0.676,0.249,0.893,0.518s0.367,0.604,0.455,1.006c0.086,0.403,0.115,0.857,0.086,1.363
			c-0.027,0.507-0.096,1.031-0.207,1.574c-0.225,1.104-0.541,2.169-0.951,3.191c-0.41,1.023-0.879,2.008-1.408,2.953
			s-1.107,1.854-1.733,2.726c-0.627,0.871-1.271,1.713-1.931,2.524c-0.035,0.168-0.076,0.37-0.123,0.604
			c-0.049,0.234-0.096,0.469-0.144,0.702c-0.048,0.234-0.093,0.454-0.134,0.66c-0.043,0.206-0.076,0.37-0.1,0.491L86.571,39.486z
			 M87.626,34.306c0.553-0.784,1.066-1.555,1.543-2.311c0.477-0.757,0.908-1.52,1.294-2.289s0.728-1.561,1.022-2.373
			c0.298-0.812,0.537-1.672,0.722-2.58c0.03-0.15,0.073-0.391,0.126-0.721s0.08-0.671,0.082-1.021
			c0.002-0.352-0.043-0.668-0.13-0.948c-0.089-0.281-0.258-0.447-0.51-0.499c-0.198-0.04-0.396,0.063-0.597,0.311
			c-0.199,0.246-0.401,0.596-0.605,1.047c-0.205,0.45-0.406,0.982-0.606,1.594c-0.198,0.613-0.393,1.266-0.581,1.959
			c-0.188,0.693-0.367,1.407-0.54,2.143c-0.173,0.734-0.336,1.45-0.486,2.146c-0.151,0.695-0.288,1.348-0.411,1.956
			C87.824,33.327,87.717,33.856,87.626,34.306z"/>
		<path d="M96.101,39.759c0.275-1.349,0.629-2.675,1.062-3.98c0.045-0.128,0.125-0.231,0.238-0.31
			c0.115-0.079,0.248-0.104,0.4-0.072c0.135,0.027,0.238,0.104,0.305,0.23c0.068,0.126,0.088,0.259,0.059,0.399
			c-0.012,0.056-0.057,0.222-0.137,0.499c-0.078,0.275-0.174,0.605-0.283,0.987c-0.111,0.382-0.223,0.788-0.334,1.219
			c-0.109,0.431-0.203,0.829-0.277,1.194c-0.102,0.496-0.135,0.905-0.104,1.229c0.033,0.324,0.107,0.585,0.221,0.783
			c0.113,0.199,0.248,0.343,0.404,0.434c0.154,0.09,0.309,0.15,0.459,0.182c0.252,0.051,0.533,0.011,0.84-0.122
			s0.639-0.339,0.99-0.618c0.352-0.278,0.719-0.626,1.102-1.04c0.385-0.414,0.775-0.883,1.172-1.406
			c0.064-0.085,0.141-0.145,0.232-0.18c0.09-0.035,0.186-0.042,0.285-0.022c0.145,0.029,0.252,0.109,0.324,0.241
			c0.07,0.132,0.094,0.263,0.066,0.395c-0.02,0.094-0.053,0.169-0.102,0.228c-0.152,0.193-0.342,0.428-0.566,0.704
			c-0.223,0.275-0.473,0.556-0.746,0.842s-0.566,0.564-0.879,0.838c-0.312,0.272-0.635,0.509-0.965,0.71
			c-0.332,0.2-0.666,0.35-1.006,0.446c-0.336,0.097-0.662,0.114-0.977,0.05c-0.404-0.082-0.742-0.243-1.012-0.484
			c-0.27-0.239-0.479-0.53-0.631-0.873c-0.148-0.342-0.234-0.729-0.256-1.156C95.968,40.676,96.005,40.227,96.101,39.759z
			 M99.958,31.975c-0.072,0.355-0.252,0.634-0.541,0.833s-0.604,0.265-0.945,0.195c-0.34-0.069-0.605-0.253-0.793-0.549
			c-0.188-0.297-0.246-0.623-0.174-0.979c0.037-0.178,0.102-0.338,0.195-0.479c0.096-0.142,0.209-0.26,0.348-0.354
			c0.135-0.094,0.285-0.159,0.445-0.194c0.162-0.036,0.328-0.036,0.498-0.001c0.172,0.034,0.326,0.1,0.459,0.195
			c0.135,0.097,0.248,0.214,0.336,0.354s0.148,0.293,0.18,0.461C99.997,31.624,99.995,31.797,99.958,31.975z M99.204,31.821
			c0.027-0.132,0.002-0.256-0.07-0.373c-0.076-0.118-0.176-0.189-0.301-0.215c-0.127-0.025-0.246,0.002-0.355,0.081
			c-0.109,0.081-0.178,0.186-0.203,0.317c-0.027,0.131-0.006,0.253,0.064,0.364c0.07,0.112,0.17,0.181,0.297,0.207
			c0.125,0.025,0.244,0,0.359-0.074C99.106,32.055,99.179,31.952,99.204,31.821z"/>
		<path d="M102.622,42.753c0.209-0.288,0.445-0.599,0.709-0.931c0.264-0.331,0.543-0.67,0.838-1.015
			c0.295-0.343,0.604-0.683,0.924-1.018s0.646-0.644,0.975-0.929c0.328-0.273,0.639-0.456,0.934-0.548
			c0.295-0.091,0.559-0.113,0.791-0.065c0.234,0.047,0.43,0.138,0.584,0.271c0.156,0.135,0.273,0.297,0.35,0.488
			c0.08,0.191,0.125,0.406,0.137,0.643c0.014,0.236-0.008,0.485-0.061,0.748c-0.045,0.215-0.123,0.499-0.236,0.851
			c-0.113,0.353-0.211,0.726-0.291,1.118c-0.045,0.226-0.08,0.449-0.102,0.674c-0.023,0.225-0.021,0.43,0.002,0.615
			c0.023,0.185,0.08,0.343,0.176,0.475c0.094,0.131,0.236,0.216,0.426,0.254c0.217,0.044,0.443,0.025,0.686-0.058
			s0.486-0.208,0.736-0.376c0.25-0.169,0.496-0.362,0.736-0.582c0.242-0.219,0.465-0.441,0.67-0.668s0.391-0.447,0.555-0.662
			c0.166-0.215,0.301-0.395,0.406-0.539c0.133-0.197,0.312-0.272,0.537-0.227c0.152,0.031,0.262,0.111,0.328,0.242
			s0.088,0.262,0.061,0.393c-0.016,0.075-0.041,0.142-0.082,0.202c-0.053,0.068-0.152,0.208-0.303,0.421s-0.346,0.456-0.584,0.729
			s-0.51,0.555-0.811,0.844c-0.303,0.29-0.623,0.549-0.965,0.776s-0.695,0.4-1.061,0.516s-0.727,0.137-1.086,0.064
			c-0.414-0.085-0.729-0.243-0.943-0.477c-0.213-0.234-0.361-0.506-0.443-0.814c-0.082-0.31-0.113-0.643-0.092-0.999
			s0.064-0.698,0.131-1.025c0.035-0.169,0.078-0.348,0.131-0.537c0.051-0.188,0.105-0.375,0.162-0.56
			c0.057-0.184,0.107-0.355,0.154-0.516c0.047-0.162,0.082-0.299,0.105-0.411c0.059-0.29,0.061-0.494,0.004-0.613
			c-0.055-0.118-0.131-0.188-0.23-0.208c-0.145-0.029-0.326,0.024-0.545,0.16c-0.221,0.136-0.459,0.323-0.717,0.563
			c-0.262,0.239-0.527,0.515-0.801,0.824s-0.541,0.619-0.799,0.927c-0.26,0.308-0.498,0.604-0.715,0.886
			c-0.215,0.282-0.396,0.517-0.535,0.702c-0.27,0.355-0.516,0.581-0.736,0.678c-0.221,0.096-0.406,0.129-0.559,0.098
			c-0.279-0.057-0.469-0.215-0.57-0.475s-0.119-0.553-0.053-0.881l0.18-0.885c0.359-1.769,0.705-3.456,1.037-5.061
			c0.33-1.605,0.658-3.093,0.979-4.466c0.32-1.372,0.645-2.608,0.965-3.708c0.322-1.1,0.658-2.025,1.008-2.778
			s0.715-1.315,1.094-1.687s0.791-0.512,1.23-0.422c0.377,0.076,0.674,0.249,0.891,0.518s0.369,0.604,0.455,1.007
			c0.088,0.402,0.115,0.856,0.088,1.363c-0.029,0.506-0.096,1.03-0.207,1.573c-0.225,1.104-0.541,2.169-0.951,3.191
			c-0.41,1.024-0.879,2.008-1.408,2.953s-1.107,1.854-1.734,2.726s-1.27,1.714-1.932,2.524c-0.033,0.168-0.074,0.37-0.123,0.604
			c-0.047,0.234-0.096,0.469-0.143,0.702c-0.047,0.234-0.092,0.454-0.135,0.66c-0.041,0.206-0.074,0.37-0.1,0.491L102.622,42.753z
			 M103.677,37.571c0.553-0.784,1.068-1.554,1.545-2.311c0.477-0.756,0.908-1.52,1.293-2.289c0.387-0.77,0.727-1.561,1.023-2.373
			c0.297-0.812,0.537-1.672,0.721-2.58c0.031-0.149,0.072-0.39,0.127-0.721c0.053-0.329,0.08-0.67,0.082-1.021
			c0-0.352-0.043-0.668-0.131-0.948c-0.088-0.281-0.258-0.447-0.508-0.499c-0.199-0.04-0.398,0.063-0.598,0.311
			c-0.201,0.247-0.402,0.596-0.607,1.047c-0.203,0.451-0.406,0.982-0.604,1.595c-0.201,0.612-0.395,1.266-0.582,1.958
			c-0.188,0.693-0.367,1.408-0.539,2.143c-0.176,0.735-0.338,1.45-0.486,2.146c-0.152,0.696-0.289,1.348-0.414,1.956
			C103.876,36.594,103.769,37.122,103.677,37.571z"/>
		<path d="M122.624,43.985c-0.051,0.068-0.158,0.209-0.318,0.425c-0.162,0.216-0.361,0.461-0.598,0.734
			c-0.24,0.273-0.51,0.555-0.811,0.844c-0.303,0.289-0.627,0.546-0.971,0.768c-0.346,0.223-0.701,0.392-1.072,0.506
			c-0.369,0.115-0.738,0.135-1.107,0.06c-0.52-0.105-0.924-0.368-1.209-0.786c-0.283-0.419-0.453-0.906-0.51-1.464
			c-0.412,0.472-0.863,0.821-1.35,1.049s-0.941,0.298-1.363,0.213c-0.332-0.068-0.619-0.192-0.863-0.374
			c-0.246-0.181-0.438-0.405-0.58-0.674c-0.143-0.268-0.232-0.566-0.273-0.896c-0.039-0.33-0.023-0.677,0.051-1.042
			c0.148-0.73,0.398-1.35,0.75-1.858c0.352-0.508,0.75-0.913,1.193-1.212c0.445-0.3,0.91-0.497,1.393-0.595
			c0.482-0.096,0.93-0.103,1.344-0.019c0.279,0.057,0.527,0.148,0.744,0.275c0.219,0.128,0.4,0.255,0.547,0.382
			c0.148,0.128,0.258,0.24,0.332,0.338s0.113,0.153,0.121,0.164c0.074,0.142,0.098,0.277,0.07,0.409
			c-0.027,0.141-0.102,0.255-0.223,0.342c-0.121,0.088-0.25,0.118-0.385,0.09c-0.143-0.028-0.254-0.104-0.332-0.228
			c-0.014-0.022-0.047-0.066-0.1-0.131c-0.053-0.063-0.127-0.135-0.223-0.214c-0.096-0.077-0.215-0.152-0.354-0.226
			c-0.141-0.071-0.305-0.127-0.494-0.165c-0.279-0.058-0.59-0.052-0.93,0.016c-0.342,0.066-0.67,0.212-0.986,0.435
			c-0.318,0.224-0.605,0.525-0.865,0.906c-0.262,0.381-0.449,0.857-0.564,1.428c-0.037,0.178-0.055,0.362-0.057,0.552
			c-0.002,0.19,0.027,0.369,0.088,0.537c0.059,0.168,0.154,0.314,0.289,0.439s0.312,0.21,0.539,0.255
			c0.16,0.033,0.357,0.016,0.594-0.055c0.232-0.069,0.469-0.201,0.711-0.396c0.24-0.194,0.475-0.454,0.705-0.778
			c0.23-0.323,0.426-0.723,0.588-1.196c0.045-0.128,0.127-0.225,0.242-0.294c0.117-0.069,0.242-0.09,0.377-0.062
			c0.127,0.025,0.227,0.1,0.299,0.222c0.074,0.122,0.102,0.249,0.084,0.383c-0.025,0.18-0.059,0.434-0.098,0.762
			c-0.039,0.329-0.045,0.662-0.014,0.999c0.029,0.338,0.113,0.643,0.256,0.915c0.141,0.272,0.377,0.442,0.711,0.511
			c0.215,0.044,0.441,0.026,0.676-0.053c0.236-0.079,0.477-0.198,0.719-0.358c0.244-0.16,0.484-0.35,0.721-0.57
			c0.236-0.22,0.457-0.445,0.664-0.677c0.205-0.23,0.393-0.456,0.559-0.676c0.166-0.219,0.309-0.41,0.426-0.571
			c0.064-0.094,0.146-0.16,0.244-0.199c0.096-0.038,0.193-0.048,0.293-0.027c0.152,0.031,0.264,0.114,0.334,0.251
			c0.07,0.136,0.094,0.27,0.066,0.4C122.69,43.862,122.665,43.925,122.624,43.985z"/>
	</g>
	<g>
		<path d="M61.86,31.553l-0.615,3.021c-0.145,0.717-1.162,0.51-1.018-0.206l0.615-3.022l-2.871-0.585
			c-0.66-0.134-0.443-1.194,0.215-1.06l2.873,0.584l0.594-2.922c0.146-0.716,1.164-0.51,1.018,0.207l-0.594,2.922l2.857,0.582
			c0.66,0.134,0.443,1.193-0.215,1.06L61.86,31.553z"/>
	</g>
</g>
</svg>
