<?xml version="1.0" encoding="utf-8"?>
<!-- Generator: Adobe Illustrator 15.1.0, SVG Export Plug-In . SVG Version: 6.00 Build 0)  -->
<!DOCTYPE svg PUBLIC "-//W3C//DTD SVG 1.1//EN" "http://www.w3.org/Graphics/SVG/1.1/DTD/svg11.dtd">
<svg version="1.1" id="svg-logo" xmlns="http://www.w3.org/2000/svg" xmlns:xlink="http://www.w3.org/1999/xlink" x="0px"
	 y="0px" viewBox="0 0 603.773 343.904" enable-background="new 0 0 603.773 343.904"
	 xml:space="preserve">
<g>
	<path fill="#00B5C3" d="M56.168,135.688c0.614,2.447,1.967,4.546,4.058,6.299s4.597,2.887,7.521,3.403
		c0.895,0.158,2.38,0.281,4.456,0.371c2.076,0.089,4.576-0.393,7.5-1.446c2.923-1.054,6.166-2.958,9.729-5.714
		c3.562-2.755,7.27-6.869,11.128-12.342c0.413-0.604,0.918-1.022,1.513-1.256c0.596-0.232,1.22-0.292,1.877-0.177
		c1.014,0.179,1.773,0.682,2.273,1.508c0.499,0.826,0.676,1.658,0.528,2.493c-0.062,0.358-0.268,0.815-0.61,1.369
		c-2.858,3.988-5.871,7.471-9.04,10.45c-3.173,2.979-6.463,5.413-9.872,7.303c-3.41,1.891-6.854,3.191-10.331,3.9
		c-3.479,0.709-6.918,0.765-10.319,0.165c-2.686-0.474-5.133-1.336-7.342-2.587c-2.211-1.252-4.041-2.727-5.495-4.43
		c-1.453-1.701-2.518-3.52-3.191-5.454c-0.674-1.933-0.848-3.825-0.521-5.675c0.042-0.238,0.129-0.561,0.264-0.968
		c0.132-0.407,0.378-0.841,0.736-1.301c0.358-0.459,0.83-0.869,1.416-1.227c0.585-0.359,1.353-0.607,2.301-0.749
		c2.572-0.285,4.98-0.767,7.224-1.449c2.242-0.68,4.225-1.546,5.948-2.596c1.723-1.049,3.141-2.292,4.256-3.726
		c1.113-1.433,1.834-3.076,2.16-4.926c0.284-1.611-0.021-3.018-0.916-4.222c-0.896-1.204-2.118-1.942-3.67-2.216
		c-1.61-0.284-3.29-0.011-5.036,0.819c-1.747,0.832-3.511,2.027-5.293,3.589c-1.783,1.563-3.54,3.406-5.267,5.532
		c-1.729,2.126-3.371,4.375-4.928,6.745c-1.557,2.372-2.976,4.751-4.258,7.14c-1.282,2.389-2.382,4.609-3.297,6.663
		c-0.296,0.626-0.616,1.308-0.961,2.045c-0.347,0.74-0.789,1.414-1.327,2.027c-0.537,0.612-1.146,1.09-1.821,1.433
		c-0.677,0.342-1.491,0.429-2.444,0.261c-0.896-0.158-1.695-0.684-2.398-1.576c-0.705-0.895-0.897-2.235-0.582-4.025
		c0.062-0.358,0.317-1.728,0.77-4.109c0.45-2.38,1.045-5.492,1.784-9.33c0.737-3.838,1.591-8.24,2.559-13.208
		c0.969-4.965,1.975-10.233,3.018-15.803c1.043-5.568,2.145-11.296,3.306-17.183c1.162-5.886,2.267-11.628,3.316-17.227
		c1.047-5.598,2.062-10.91,3.04-15.937c0.979-5.026,1.842-9.488,2.591-13.386c0.748-3.897,1.354-7.082,1.823-9.554
		c0.466-2.47,0.741-3.944,0.826-4.422c0.168-0.954,0.666-1.682,1.492-2.182c0.826-0.501,1.657-0.677,2.494-0.53
		c0.952,0.168,1.703,0.624,2.249,1.366s0.73,1.621,0.551,2.635c-0.021,0.12-0.244,1.295-0.667,3.528
		c-0.426,2.231-0.999,5.222-1.721,8.971c-0.724,3.749-1.571,8.121-2.545,13.118c-0.973,4.996-2.001,10.306-3.085,15.93
		c-1.084,5.623-2.197,11.411-3.338,17.361c-1.142,5.952-2.258,11.753-3.346,17.406c-1.09,5.654-2.117,11.041-3.081,16.161
		c-0.965,5.122-1.825,9.645-2.578,13.573c1.491-2.875,3.28-5.866,5.366-8.975c2.086-3.107,4.396-5.916,6.931-8.422
		c2.532-2.506,5.23-4.46,8.094-5.863c2.862-1.402,5.844-1.831,8.947-1.283c1.73,0.305,3.285,0.902,4.668,1.792
		c1.38,0.889,2.525,1.983,3.436,3.282c0.908,1.299,1.546,2.75,1.909,4.351c0.362,1.603,0.392,3.269,0.087,4.999
		c-0.474,2.686-1.504,5.042-3.091,7.069c-1.589,2.027-3.521,3.748-5.802,5.161c-2.279,1.413-4.805,2.553-7.57,3.417
		C61.799,134.713,59.001,135.327,56.168,135.688z"/>
	<path fill="#00B5C3" d="M138.667,151.435c-1.492-0.263-2.785-0.614-3.876-1.053c-1.21,1.632-2.576,3.099-4.098,4.399
		c-1.521,1.301-3.202,2.374-5.043,3.218c-1.843,0.845-3.835,1.415-5.979,1.714c-2.145,0.298-4.41,0.237-6.796-0.183
		c-2.806-0.495-5.284-1.439-7.438-2.834c-2.154-1.395-3.941-3.125-5.36-5.19c-1.422-2.064-2.391-4.42-2.908-7.065
		c-0.519-2.644-0.514-5.458,0.013-8.442c0.673-3.818,1.945-7.024,3.818-9.617c1.871-2.591,3.869-4.67,5.991-6.234
		c2.121-1.564,4.158-2.649,6.111-3.26c1.953-0.608,3.378-0.835,4.272-0.677c1.015,0.179,1.728,0.582,2.141,1.208
		c0.411,0.626,0.54,1.387,0.382,2.282c-0.179,1.016-0.626,1.721-1.342,2.117c-0.717,0.397-1.595,0.75-2.633,1.059
		c-1.04,0.31-2.172,0.803-3.398,1.478c-1.227,0.676-2.419,1.589-3.574,2.738c-1.157,1.15-2.191,2.567-3.103,4.251
		c-0.914,1.685-1.564,3.632-1.953,5.839c-0.348,1.969-0.373,3.856-0.075,5.662c0.296,1.806,0.904,3.421,1.822,4.844
		c0.917,1.423,2.092,2.615,3.522,3.574c1.431,0.96,3.099,1.607,5.01,1.944c3.401,0.6,6.36,0.307,8.877-0.88
		c2.516-1.186,4.585-2.897,6.211-5.134c-3.195-2.47-5.625-5.606-7.293-9.407c-1.669-3.801-2.128-7.819-1.381-12.057
		c0.6-3.401,1.908-6.031,3.929-7.89c2.02-1.858,4.373-2.551,7.059-2.078c1.61,0.284,3.062,0.941,4.359,1.968
		c1.295,1.028,2.347,2.476,3.156,4.341c0.809,1.866,1.309,4.169,1.504,6.91c0.193,2.742-0.03,5.933-0.672,9.572
		c-0.337,1.91-0.929,3.867-1.773,5.87c0.347,0.124,0.7,0.216,1.059,0.279c0.357,0.063,0.745,0.131,1.163,0.205
		c2.027,0.357,3.892,0.441,5.586,0.247c1.695-0.193,3.283-0.651,4.765-1.375c1.479-0.723,2.875-1.738,4.182-3.046
		c1.307-1.307,2.612-2.862,3.915-4.663c0.241-0.327,0.689-0.601,1.345-0.824c0.653-0.222,1.278-0.282,1.876-0.177
		c0.775,0.137,1.451,0.579,2.027,1.327s0.774,1.629,0.596,2.643c-0.084,0.479-0.296,0.979-0.635,1.503
		c-0.338,0.526-0.67,1.005-0.991,1.44c-1.332,1.611-2.811,3.119-4.443,4.523c-1.632,1.405-3.467,2.558-5.501,3.46
		c-2.036,0.902-4.251,1.511-6.645,1.828C144.053,152.108,141.46,151.99,138.667,151.435z M127.338,126.181
		c-0.2,1.134-0.263,2.353-0.184,3.659c0.077,1.306,0.321,2.626,0.732,3.959c0.41,1.334,0.979,2.634,1.712,3.901
		c0.729,1.268,1.653,2.399,2.77,3.396c0.399-1.222,0.705-2.428,0.915-3.622c0.284-1.611,0.453-3.273,0.51-4.986
		c0.056-1.712-0.017-3.31-0.216-4.791c-0.201-1.48-0.554-2.712-1.057-3.693c-0.505-0.98-1.203-1.55-2.098-1.708
		c-0.359-0.063-0.885,0.121-1.574,0.553C128.158,123.28,127.654,124.391,127.338,126.181z"/>
	<path fill="#00B5C3" d="M160.994,157.31c1.211-1.632,2.752-3.652,4.622-6.061c1.869-2.407,3.803-4.821,5.798-7.238
		c1.994-2.417,3.934-4.689,5.817-6.818c1.882-2.128,3.44-3.731,4.677-4.805c2.099-1.783,4.151-2.96,6.159-3.528
		c2.007-0.569,3.787-0.717,5.34-0.443c1.55,0.273,2.818,0.836,3.809,1.687c0.987,0.852,1.742,1.892,2.264,3.122
		c0.521,1.231,0.833,2.608,0.933,4.133c0.1,1.526,0.003,3.124-0.291,4.794c-0.169,0.955-0.435,2.2-0.797,3.735
		c-0.363,1.537-0.747,3.19-1.152,4.965s-0.82,3.609-1.248,5.502c-0.426,1.895-0.816,3.672-1.17,5.331
		c1.211-1.632,2.575-3.437,4.093-5.416c1.517-1.978,3.048-3.938,4.59-5.881c1.543-1.943,3.016-3.76,4.422-5.45
		c1.405-1.69,2.661-3.052,3.767-4.089c3.186-3.068,6.004-5,8.452-5.8c2.447-0.799,4.536-1.046,6.268-0.741
		c2.028,0.358,3.632,1.026,4.815,2.002c1.18,0.979,2.041,2.114,2.583,3.409c0.54,1.295,0.832,2.685,0.879,4.169
		c0.045,1.485-0.047,2.885-0.278,4.196c-0.357,2.029-0.882,4.122-1.568,6.276c-0.688,2.155-1.3,4.754-1.836,7.797
		c-0.222,1.253-0.384,2.517-0.484,3.791c-0.102,1.274-0.044,2.424,0.177,3.446c0.219,1.023,0.693,1.907,1.425,2.65
		c0.729,0.745,1.812,1.243,3.244,1.495c1.55,0.273,3.143,0.139,4.776-0.404s3.252-1.349,4.857-2.419
		c1.604-1.07,3.163-2.333,4.683-3.789c1.518-1.454,2.93-2.928,4.24-4.42c1.309-1.491,2.485-2.93,3.53-4.315
		c1.041-1.385,1.898-2.572,2.565-3.562c0.413-0.603,0.922-1.037,1.521-1.3c0.601-0.263,1.228-0.337,1.885-0.221
		c1.015,0.179,1.77,0.696,2.265,1.553c0.494,0.857,0.669,1.703,0.521,2.538c-0.073,0.418-0.236,0.821-0.489,1.206
		c-0.323,0.437-0.977,1.351-1.96,2.746c-0.985,1.396-2.246,2.958-3.78,4.687c-1.536,1.729-3.284,3.527-5.243,5.397
		c-1.961,1.869-4.056,3.546-6.285,5.028c-2.231,1.484-4.554,2.612-6.966,3.387c-2.413,0.773-4.843,0.945-7.288,0.514
		c-2.627-0.463-4.678-1.301-6.155-2.516c-1.479-1.213-2.573-2.682-3.284-4.409c-0.711-1.724-1.065-3.633-1.066-5.725
		c-0.001-2.091,0.194-4.241,0.584-6.45c0.515-2.923,1.14-5.597,1.875-8.021c0.734-2.423,1.224-4.32,1.466-5.694
		c0.264-1.491,0.328-2.649,0.197-3.472c-0.132-0.822-0.363-1.433-0.692-1.829c-0.331-0.396-0.672-0.641-1.023-0.735
		c-0.354-0.092-0.62-0.155-0.799-0.187c-1.432-0.252-3.078,0.273-4.938,1.575c-1.859,1.303-3.858,3.12-5.99,5.45
		c-2.135,2.332-4.377,5.012-6.725,8.043c-2.351,3.032-4.725,6.12-7.126,9.265c-1.351,1.731-2.479,3.162-3.387,4.294
		c-0.907,1.132-1.736,2.001-2.488,2.606c-0.755,0.605-1.456,1.003-2.104,1.198c-0.65,0.192-1.333,0.226-2.049,0.1
		c-1.553-0.273-2.635-1.018-3.252-2.234c-0.616-1.216-0.771-2.688-0.465-4.419c0.157-0.895,0.396-2.083,0.72-3.564
		c0.321-1.48,0.671-3.112,1.047-4.891c0.374-1.78,0.79-3.613,1.247-5.502c0.455-1.888,0.869-3.707,1.239-5.458
		c0.368-1.749,0.705-3.305,1.007-4.667c0.301-1.361,0.517-2.401,0.643-3.117c0.273-1.551,0.202-2.717-0.214-3.499
		c-0.416-0.78-0.981-1.234-1.698-1.361c-0.657-0.116-1.429-0.005-2.319,0.33c-0.89,0.336-1.993,1.095-3.309,2.277
		c-1.025,0.927-2.36,2.306-4.006,4.139c-1.646,1.833-3.406,3.875-5.279,6.129c-1.875,2.254-3.744,4.57-5.608,6.948
		c-1.866,2.379-3.49,4.522-4.873,6.432c-1.694,2.285-3.25,3.78-4.666,4.483s-2.722,0.951-3.915,0.74
		c-1.73-0.305-2.921-1.054-3.572-2.245c-0.652-1.191-0.824-2.652-0.519-4.383c0.031-0.179,0.266-1.245,0.702-3.198
		s0.964-4.336,1.583-7.15c0.619-2.812,1.288-5.818,2.006-9.014c0.716-3.196,1.381-6.185,1.996-8.969
		c0.321-1.48,0.505-2.864,0.547-4.149c0.043-1.285-0.065-2.072-0.322-2.364c-0.498,0.036-1.632,0.974-3.402,2.814
		c-1.771,1.842-4.188,5.168-7.251,9.98c-0.415,0.605-0.951,1.032-1.611,1.285c-0.659,0.253-1.317,0.321-1.974,0.206
		c-1.016-0.179-1.761-0.664-2.235-1.456c-0.477-0.791-0.635-1.635-0.478-2.53c0.074-0.417,0.242-0.848,0.506-1.295
		c3.811-5.911,7.204-10.157,10.183-12.739c2.979-2.581,5.631-3.668,7.958-3.257c1.372,0.242,2.465,0.757,3.281,1.547
		c0.812,0.789,1.402,1.724,1.766,2.803c0.363,1.079,0.554,2.266,0.572,3.562c0.017,1.295-0.079,2.54-0.289,3.733
		c-0.938,5.312-1.93,10.15-2.976,14.518C163.149,148.493,162.081,152.888,160.994,157.31z"/>
	<path fill="#00B5C3" d="M329.667,169.517c-0.323,0.436-0.991,1.348-2.005,2.738c-1.016,1.39-2.277,2.967-3.787,4.732
		c-1.512,1.764-3.231,3.582-5.162,5.457s-4.008,3.539-6.233,4.992s-4.545,2.566-6.957,3.342c-2.413,0.773-4.843,0.945-7.289,0.514
		c-3.461-0.609-6.174-2.229-8.143-4.85c-1.968-2.623-3.193-5.7-3.679-9.232c-2.629,3.044-5.522,5.318-8.678,6.822
		c-3.159,1.505-6.139,2.01-8.943,1.515c-2.208-0.39-4.135-1.144-5.783-2.266c-1.648-1.121-2.971-2.522-3.966-4.206
		c-0.995-1.682-1.663-3.57-2-5.659c-0.34-2.09-0.305-4.299,0.105-6.626c0.821-4.654,2.335-8.617,4.543-11.888
		c2.206-3.271,4.743-5.885,7.612-7.84c2.866-1.955,5.883-3.269,9.047-3.942c3.164-0.672,6.118-0.767,8.863-0.283
		c1.848,0.326,3.505,0.88,4.968,1.66c1.462,0.781,2.692,1.568,3.69,2.358c0.999,0.792,1.751,1.494,2.26,2.105
		c0.505,0.613,0.784,0.955,0.834,1.024c0.52,0.892,0.706,1.755,0.559,2.59c-0.157,0.895-0.625,1.629-1.402,2.198
		c-0.778,0.571-1.614,0.777-2.509,0.619c-0.955-0.168-1.703-0.638-2.243-1.411c-0.1-0.14-0.328-0.411-0.688-0.813
		c-0.359-0.401-0.866-0.845-1.519-1.329c-0.653-0.484-1.448-0.948-2.385-1.39c-0.938-0.442-2.033-0.773-3.286-0.995
		c-1.851-0.326-3.894-0.255-6.129,0.211c-2.236,0.468-4.373,1.429-6.414,2.883c-2.042,1.456-3.878,3.409-5.51,5.858
		c-1.631,2.451-2.769,5.496-3.41,9.135c-0.2,1.134-0.283,2.304-0.249,3.509c0.033,1.206,0.264,2.339,0.693,3.399
		c0.427,1.059,1.096,1.978,2.005,2.752c0.909,0.776,2.11,1.295,3.602,1.559c1.074,0.189,2.376,0.049,3.904-0.42
		s3.065-1.335,4.612-2.602c1.544-1.264,3.04-2.938,4.484-5.023c1.443-2.083,2.648-4.639,3.613-7.668
		c0.267-0.814,0.777-1.446,1.535-1.898c0.755-0.451,1.581-0.598,2.477-0.44c0.835,0.147,1.509,0.605,2.019,1.372
		c0.511,0.767,0.723,1.573,0.635,2.418c-0.141,1.145-0.303,2.762-0.485,4.853c-0.185,2.09-0.142,4.206,0.127,6.344
		c0.268,2.139,0.897,4.066,1.889,5.777c0.99,1.713,2.588,2.764,4.796,3.152c1.433,0.254,2.918,0.115,4.457-0.413
		c1.537-0.528,3.093-1.315,4.661-2.362c1.569-1.045,3.109-2.281,4.623-3.707c1.511-1.425,2.922-2.883,4.232-4.375
		c1.308-1.492,2.487-2.945,3.536-4.36c1.049-1.415,1.943-2.641,2.681-3.68c0.412-0.604,0.936-1.035,1.565-1.293
		s1.271-0.33,1.93-0.214c1.014,0.179,1.77,0.697,2.264,1.553c0.496,0.858,0.669,1.703,0.521,2.538
		C330.083,168.729,329.918,169.132,329.667,169.517z"/>
	<path fill="#00B5C3" d="M358.73,214.049c-0.495,4.896-1.337,10.715-2.525,17.459c-1.273,7.219-2.891,13.777-4.854,19.678
		c-1.961,5.896-4.196,10.888-6.699,14.969c-2.505,4.08-5.255,7.117-8.252,9.111s-6.166,2.697-9.508,2.107
		c-1.671-0.295-3.184-0.962-4.539-2c-1.354-1.039-2.459-2.371-3.309-3.998c-0.854-1.627-1.417-3.48-1.696-5.559
		c-0.278-2.08-0.203-4.344,0.229-6.79c0.642-3.64,1.752-7.413,3.333-11.317c1.581-3.906,3.745-7.892,6.493-11.959
		c2.747-4.07,6.155-8.223,10.225-12.457s8.918-8.532,14.548-12.893c0.214-2.607,0.321-5.051,0.323-7.326
		c0-2.277-0.155-4.272-0.467-5.988c-0.312-1.717-0.793-3.094-1.441-4.131c-0.647-1.037-1.539-1.655-2.672-1.855
		c-0.357-0.062-0.786-0.076-1.285-0.041c-1.656,1.369-3.116,2.403-4.376,3.104c-1.264,0.701-2.383,1.211-3.362,1.53
		c-0.979,0.321-1.793,0.483-2.44,0.493c-0.646,0.01-1.121-0.014-1.419-0.066c-1.015-0.179-1.935-0.633-2.758-1.363
		c-0.826-0.729-1.102-1.869-0.828-3.422c0.095-0.537,0.409-1.188,0.945-1.955c0.535-0.768,1.332-1.534,2.39-2.302
		c1.059-0.767,2.389-1.425,3.993-1.972c1.604-0.549,3.485-0.847,5.649-0.896c4.686-3.541,8.444-6.894,11.279-10.055
		c2.832-3.161,4.523-6.292,5.071-9.396c0.474-2.685,0.016-4.981-1.371-6.887c-1.387-1.905-3.363-3.085-5.929-3.537
		c-3.579-0.631-7.454,0.409-11.624,3.119c-4.169,2.711-8.207,6.767-12.112,12.169c-0.889,1.197-2.048,1.669-3.48,1.417
		c-1.016-0.179-1.757-0.679-2.228-1.5s-0.632-1.649-0.484-2.485c0.095-0.537,0.298-0.993,0.611-1.369
		c4.792-6.598,9.838-11.493,15.14-14.68c5.299-3.187,10.455-4.34,15.468-3.456c2.027,0.357,3.919,1.06,5.672,2.107
		c1.755,1.047,3.229,2.369,4.424,3.964c1.195,1.595,2.04,3.437,2.533,5.522c0.492,2.087,0.52,4.383,0.078,6.889
		c-0.369,2.089-1.008,4.053-1.916,5.892c-0.91,1.839-2.002,3.584-3.276,5.237c-1.276,1.652-2.688,3.202-4.236,4.651
		c-1.548,1.45-3.116,2.835-4.701,4.155c1.486,1,2.635,2.249,3.447,3.744c0.812,1.498,1.42,3.111,1.822,4.844
		c0.4,1.732,0.629,3.496,0.683,5.289s0.057,3.517,0.011,5.17c2.699-2.048,5.513-4.227,8.444-6.541
		c2.93-2.312,5.775-4.671,8.539-7.076c2.761-2.404,5.322-4.798,7.681-7.183c2.357-2.384,4.285-4.673,5.78-6.872
		c0.412-0.604,0.917-1.021,1.513-1.256c0.594-0.232,1.22-0.292,1.877-0.176c1.014,0.178,1.774,0.668,2.279,1.463
		c0.506,0.797,0.686,1.613,0.538,2.448c-0.084,0.479-0.254,0.91-0.506,1.296c-1.839,2.752-4.255,5.633-7.245,8.643
		c-2.992,3.012-6.193,5.984-9.603,8.92c-3.411,2.938-6.856,5.727-10.336,8.375C364.787,209.702,361.607,212.032,358.73,214.049z
		 M351.112,220.088c-4.568,3.932-8.434,7.71-11.597,11.337c-3.163,3.626-5.789,7.101-7.883,10.423s-3.71,6.467-4.847,9.436
		c-1.14,2.967-1.935,5.734-2.387,8.301c-0.536,3.043-0.432,5.584,0.316,7.623s1.897,3.195,3.449,3.469
		c2.088,0.369,4.172-0.371,6.252-2.22c2.079-1.849,4.044-4.532,5.896-8.051c1.851-3.52,3.551-7.757,5.103-12.712
		c1.55-4.957,2.841-10.359,3.872-16.207c0.273-1.552,0.566-3.3,0.879-5.244C350.476,224.298,350.792,222.247,351.112,220.088z"/>
	<path fill="#00B5C3" d="M388.104,187.205c1.515-8.593,3.562-17.06,6.141-25.404c0.266-0.814,0.769-1.48,1.505-1.996
		c0.737-0.516,1.612-0.685,2.627-0.506c0.896,0.158,1.58,0.633,2.057,1.424c0.476,0.792,0.635,1.634,0.478,2.53
		c-0.063,0.357-0.329,1.418-0.793,3.182c-0.464,1.764-1.021,3.867-1.665,6.305c-0.646,2.44-1.288,5.034-1.927,7.782
		c-0.638,2.748-1.161,5.286-1.572,7.613c-0.558,3.164-0.694,5.77-0.409,7.818c0.283,2.051,0.824,3.699,1.62,4.946
		c0.794,1.247,1.711,2.147,2.753,2.7c1.04,0.553,2.067,0.918,3.083,1.098c1.67,0.294,3.505,0.004,5.507-0.875
		c2-0.877,4.13-2.225,6.388-4.041c2.26-1.816,4.608-4.063,7.049-6.74c2.44-2.676,4.913-5.701,7.414-9.076
		c0.404-0.543,0.903-0.932,1.499-1.166c0.595-0.232,1.219-0.293,1.876-0.176c0.953,0.168,1.683,0.665,2.183,1.492
		c0.5,0.826,0.677,1.658,0.529,2.492c-0.105,0.598-0.314,1.084-0.625,1.459c-0.959,1.246-2.148,2.76-3.57,4.539
		c-1.421,1.779-3.002,3.593-4.742,5.439c-1.742,1.847-3.613,3.654-5.618,5.424c-2.004,1.768-4.075,3.311-6.214,4.625
		c-2.14,1.316-4.312,2.299-6.521,2.957c-2.208,0.656-4.354,0.801-6.442,0.434c-2.686-0.475-4.944-1.458-6.771-2.947
		c-1.83-1.492-3.278-3.315-4.342-5.473c-1.066-2.156-1.715-4.594-1.941-7.311C387.429,193.038,387.578,190.189,388.104,187.205z
		 M411.851,137.311c-0.399,2.268-1.53,4.053-3.389,5.355c-1.86,1.303-3.924,1.753-6.191,1.354c-2.268-0.399-4.054-1.529-5.354-3.39
		c-1.304-1.859-1.754-3.923-1.354-6.191c0.2-1.133,0.595-2.156,1.188-3.067c0.59-0.911,1.324-1.672,2.203-2.288
		c0.876-0.614,1.845-1.043,2.902-1.288c1.059-0.243,2.154-0.266,3.288-0.066c1.133,0.2,2.156,0.596,3.067,1.187
		c0.91,0.592,1.673,1.326,2.288,2.203c0.613,0.878,1.043,1.845,1.287,2.903C412.029,135.081,412.051,136.178,411.851,137.311z
		 M406.839,136.427c0.147-0.835-0.037-1.622-0.553-2.359c-0.517-0.737-1.191-1.179-2.027-1.326s-1.608,0.04-2.313,0.561
		c-0.708,0.521-1.135,1.2-1.282,2.035c-0.147,0.836,0.024,1.605,0.518,2.306c0.489,0.702,1.153,1.126,1.989,1.274
		s1.619-0.021,2.351-0.508C406.252,137.924,406.692,137.264,406.839,136.427z"/>
	<path fill="#00B5C3" d="M444.651,207.235c1.302-1.801,2.787-3.769,4.457-5.905c1.669-2.136,3.433-4.286,5.29-6.45
		s3.788-4.3,5.791-6.408c2.001-2.107,4.057-4.084,6.166-5.926c2.099-1.783,4.109-2.982,6.033-3.598
		c1.923-0.613,3.66-0.785,5.213-0.512c3.102,0.547,5.199,2.086,6.292,4.617c1.091,2.531,1.343,5.467,0.754,8.808
		c-0.138,0.776-0.347,1.708-0.632,2.796c-0.284,1.089-0.581,2.25-0.892,3.488c-0.31,1.237-0.623,2.49-0.94,3.756
		c-0.314,1.269-0.572,2.469-0.771,3.602c-0.253,1.432-0.422,2.818-0.503,4.156c-0.083,1.34-0.002,2.539,0.243,3.597
		c0.242,1.058,0.703,1.939,1.379,2.644c0.675,0.703,1.64,1.165,2.893,1.386c2.267,0.399,4.632-0.091,7.09-1.472
		c2.459-1.381,4.81-3.121,7.057-5.217c2.246-2.096,4.262-4.277,6.047-6.547c1.784-2.27,3.14-4.121,4.07-5.559
		c0.414-0.604,0.937-1.034,1.566-1.292c0.63-0.259,1.271-0.329,1.93-0.214c1.014,0.18,1.77,0.697,2.264,1.553
		c0.496,0.857,0.669,1.703,0.521,2.537c-0.073,0.419-0.236,0.821-0.489,1.207c-0.323,0.436-0.973,1.336-1.952,2.701
		s-2.223,2.916-3.728,4.648c-1.505,1.734-3.227,3.555-5.161,5.458c-1.937,1.905-4.001,3.586-6.196,5.045
		c-2.195,1.458-4.487,2.593-6.876,3.401s-4.776,1.004-7.163,0.584c-2.685-0.475-4.771-1.381-6.257-2.719
		c-1.487-1.338-2.559-2.943-3.212-4.812c-0.655-1.869-0.966-3.861-0.93-5.978c0.033-2.116,0.235-4.218,0.604-6.308
		c0.157-0.895,0.38-1.901,0.67-3.02c0.289-1.117,0.619-2.291,0.99-3.518c0.369-1.227,0.71-2.458,1.021-3.695
		c0.311-1.238,0.564-2.422,0.765-3.557c0.337-1.908,0.267-3.26-0.207-4.051c-0.477-0.791-0.953-1.23-1.43-1.314
		c-0.956-0.168-2.143,0.192-3.559,1.08c-1.42,0.889-2.957,2.109-4.615,3.662c-1.657,1.554-3.387,3.326-5.183,5.316
		c-1.797,1.99-3.502,3.982-5.113,5.974c-1.614,1.992-3.118,3.896-4.515,5.71c-1.396,1.816-2.51,3.326-3.337,4.533
		c-1.637,2.296-3.126,3.772-4.472,4.426c-1.347,0.654-2.646,0.872-3.899,0.65c-1.731-0.305-3.025-1.072-3.885-2.299
		c-0.86-1.229-1.123-2.797-0.786-4.707c0.073-0.417,0.277-1.228,0.613-2.43c0.335-1.201,0.742-2.639,1.221-4.307
		c0.48-1.67,0.982-3.473,1.508-5.41c0.526-1.938,1.05-3.859,1.57-5.768c0.522-1.907,0.988-3.687,1.403-5.336
		c0.412-1.65,0.72-3.042,0.92-4.176c0.263-1.49,0.455-2.934,0.579-4.328c0.122-1.393,0.031-2.27-0.274-2.633
		c-0.568,0.084-1.721,1.035-3.456,2.852s-4.135,5.131-7.198,9.943c-0.415,0.605-0.951,1.033-1.611,1.285
		c-0.659,0.254-1.317,0.322-1.974,0.205c-1.016-0.178-1.761-0.663-2.235-1.455c-0.476-0.79-0.635-1.635-0.478-2.529
		c0.074-0.416,0.242-0.848,0.506-1.295c3.811-5.911,7.16-10.166,10.05-12.764c2.888-2.597,5.496-3.691,7.822-3.281
		c1.372,0.242,2.476,0.791,3.31,1.645c0.833,0.855,1.434,1.899,1.801,3.132c0.367,1.234,0.563,2.561,0.591,3.98
		c0.026,1.42-0.087,2.846-0.34,4.277c-0.189,1.074-0.56,2.732-1.107,4.973c-0.55,2.242-1.172,4.639-1.868,7.192
		s-1.375,5.096-2.036,7.624C445.708,203.422,445.136,205.537,444.651,207.235z"/>
	<path fill="#00B5C3" d="M535.754,240.649c13.796-12.641,23.723-23.411,29.784-32.31c0.414-0.604,0.903-1.024,1.469-1.264
		c0.563-0.237,1.175-0.301,1.832-0.185c1.015,0.179,1.788,0.67,2.324,1.471c0.535,0.803,0.725,1.65,0.566,2.546
		c-0.073,0.419-0.236,0.821-0.488,1.206c-3.68,5.504-8.581,11.5-14.709,17.986c-6.126,6.488-13.707,13.702-22.735,21.646
		c-0.663,3.76-1.296,7.524-1.898,11.295c-0.604,3.77-1.3,7.892-2.089,12.367c-0.789,4.475-1.675,8.887-2.657,13.236
		c-0.982,4.349-2.091,8.459-3.328,12.333c-1.237,3.872-2.615,7.413-4.134,10.622c-1.521,3.207-3.229,5.922-5.127,8.141
		c-1.899,2.217-4.001,3.848-6.307,4.887s-4.861,1.312-7.666,0.816c-3.998-0.704-6.803-2.768-8.414-6.189s-1.923-7.938-0.934-13.547
		c0.526-2.984,1.38-6.17,2.562-9.561c1.183-3.392,2.637-6.842,4.363-10.352c1.727-3.512,3.686-7.026,5.874-10.547
		c2.189-3.521,4.524-6.908,7.007-10.162c2.479-3.254,5.099-6.331,7.855-9.229s5.595-5.473,8.516-7.727
		c0.796-4.167,1.57-8.306,2.328-12.418c0.755-4.111,1.497-7.887,2.228-11.327c-2.189,1.952-4.639,3.366-7.346,4.241
		c-2.709,0.875-5.286,1.1-7.731,0.668c-2.09-0.369-3.912-1.105-5.472-2.211c-1.558-1.105-2.806-2.494-3.741-4.166
		c-0.937-1.672-1.559-3.551-1.866-5.637c-0.311-2.084-0.26-4.291,0.15-6.617c0.821-4.654,2.335-8.617,4.543-11.889
		c2.206-3.271,4.743-5.885,7.612-7.841c2.866-1.954,5.883-3.269,9.047-3.942c3.164-0.672,6.118-0.767,8.863-0.283
		c1.848,0.326,3.508,0.865,4.976,1.616c1.467,0.752,2.7,1.522,3.698,2.313c0.999,0.791,1.749,1.508,2.252,2.15
		c0.5,0.643,0.776,1,0.826,1.068c0.53,0.832,0.717,1.695,0.559,2.59c-0.157,0.896-0.625,1.629-1.402,2.199
		c-0.778,0.57-1.614,0.776-2.509,0.619c-0.837-0.148-1.584-0.617-2.243-1.411c-0.208-0.222-0.476-0.53-0.806-0.927
		c-0.332-0.396-0.777-0.828-1.34-1.297c-0.563-0.469-1.257-0.898-2.08-1.29c-0.823-0.39-1.832-0.692-3.025-0.903
		c-1.79-0.314-3.829-0.26-6.12,0.168c-2.29,0.426-4.513,1.342-6.668,2.746s-4.098,3.354-5.829,5.848
		c-1.732,2.494-2.936,5.65-3.608,9.469c-0.506,2.865-0.286,5.288,0.657,7.269c0.942,1.981,2.725,3.203,5.352,3.666
		c1.253,0.222,2.644,0.097,4.173-0.372c1.528-0.469,3.08-1.332,4.656-2.594c1.574-1.26,3.056-2.936,4.439-5.031
		c1.386-2.093,2.56-4.654,3.524-7.684c0.267-0.814,0.777-1.447,1.535-1.898c0.755-0.451,1.581-0.598,2.477-0.439
		c1.014,0.178,1.741,0.676,2.182,1.492c0.44,0.815,0.583,1.671,0.425,2.566c-0.011,0.061-0.202,0.965-0.571,2.713
		c-0.37,1.752-0.844,4.083-1.418,6.996c-0.575,2.913-1.247,6.285-2.015,10.119C537.364,232.303,536.571,236.363,535.754,240.649z
		 M525.497,259.051c-3.489,3.383-6.771,7.158-9.842,11.323c-3.073,4.165-5.824,8.433-8.256,12.803
		c-2.433,4.37-4.468,8.672-6.106,12.905c-1.639,4.232-2.762,8.08-3.372,11.541c-0.39,2.207-0.507,4.002-0.35,5.383
		c0.156,1.381,0.454,2.48,0.896,3.297c0.439,0.814,0.981,1.402,1.626,1.763c0.645,0.358,1.264,0.592,1.861,0.697
		c1.85,0.326,3.592-0.137,5.229-1.386c1.635-1.25,3.148-3.029,4.54-5.336c1.39-2.309,2.669-5.021,3.834-8.138
		c1.164-3.117,2.198-6.366,3.104-9.743c0.902-3.379,1.714-6.758,2.434-10.138c0.718-3.38,1.331-6.503,1.836-9.366
		c0.452-2.566,0.905-5.133,1.357-7.697C524.739,264.393,525.141,261.756,525.497,259.051z"/>
</g>
</svg>
