<?xml version="1.0" encoding="utf-8"?>
<!-- Generator: Adobe Illustrator 15.1.0, SVG Export Plug-In . SVG Version: 6.00 Build 0)  -->
<!DOCTYPE svg PUBLIC "-//W3C//DTD SVG 1.1//EN" "http://www.w3.org/Graphics/SVG/1.1/DTD/svg11.dtd">
<svg version="1.1" id="レイヤー_1" xmlns="http://www.w3.org/2000/svg" xmlns:xlink="http://www.w3.org/1999/xlink" x="0px"
	 y="0px" viewBox="0 0 65.11 91.808" enable-background="new 0 0 65.11 91.808"
	 xml:space="preserve">
<g>
	<path fill="#47BCC6" d="M23.595,14.122c0.017-0.463-0.302-0.863-0.742-0.941c-0.489-0.086-0.969,0.265-1.059,0.773l-0.282,1.601
		l-0.42-0.074l0.514-2.909l0.42,0.074l-0.055,0.305c0.295-0.195,0.624-0.265,0.959-0.205c0.643,0.113,1.098,0.681,1.097,1.378
		L23.595,14.122z"/>
	<path fill="#47BCC6" d="M26.612,16.454l0.069-0.394c-0.315,0.237-0.729,0.337-1.119,0.268c-0.797-0.14-1.327-0.932-1.18-1.768
		c0.146-0.829,0.916-1.397,1.713-1.258c0.397,0.07,0.74,0.296,0.961,0.635l0.068-0.393l0.42,0.074l-0.513,2.909L26.612,16.454z
		 M26.039,13.743c-0.58-0.103-1.131,0.288-1.236,0.884c-0.106,0.604,0.27,1.166,0.843,1.267c0.572,0.102,1.118-0.298,1.224-0.895
		C26.972,14.417,26.592,13.84,26.039,13.743z"/>
	<path fill="#47BCC6" d="M28.178,16.73l0.514-2.909l0.42,0.073l-0.514,2.909L28.178,16.73z M29.103,12.716
		c-0.217-0.038-0.36-0.251-0.32-0.477c0.04-0.225,0.247-0.376,0.471-0.337c0.21,0.037,0.351,0.257,0.312,0.475
		C29.525,12.603,29.319,12.754,29.103,12.716z"/>
	<path fill="#47BCC6" d="M32.028,17.409l0.285-1.615c0.104-0.589-0.146-0.971-0.698-1.067c-0.587-0.104-1.085,0.229-1.186,0.796
		l-0.274,1.557l-0.419-0.074l0.514-2.909l0.418,0.074l-0.059,0.334c0.312-0.215,0.664-0.288,1.075-0.215
		c0.791,0.139,1.193,0.75,1.048,1.579l-0.285,1.614L32.028,17.409z"/>
	<path fill="#47BCC6" d="M33.292,20.631l-0.469-0.082l1.958-2.737l-1.191-3.127l0.496,0.088l1.001,2.621l1.55-2.172l0.469,0.083
		L33.292,20.631z"/>
	<path fill="#47BCC6" d="M41.707,19.115l0.069-0.393c-0.315,0.236-0.729,0.337-1.12,0.268c-0.796-0.141-1.327-0.932-1.18-1.768
		c0.147-0.837,0.917-1.398,1.713-1.258c0.398,0.07,0.74,0.296,0.961,0.634l0.583-3.302l0.419,0.074l-1.026,5.818L41.707,19.115z
		 M41.134,16.404c-0.58-0.102-1.132,0.289-1.237,0.885c-0.106,0.604,0.27,1.165,0.843,1.267c0.573,0.101,1.119-0.299,1.225-0.895
		C42.066,17.079,41.686,16.502,41.134,16.404z"/>
	<path fill="#47BCC6" d="M45.453,19.776l0.069-0.394c-0.315,0.237-0.729,0.337-1.12,0.268c-0.796-0.141-1.327-0.932-1.18-1.768
		c0.146-0.829,0.917-1.398,1.713-1.258c0.398,0.07,0.74,0.296,0.961,0.635l0.07-0.393l0.418,0.073l-0.513,2.909L45.453,19.776z
		 M44.88,17.065c-0.58-0.103-1.132,0.288-1.237,0.884c-0.106,0.604,0.27,1.166,0.843,1.267s1.119-0.298,1.225-0.895
		C45.812,17.739,45.432,17.162,44.88,17.065z"/>
	<path fill="#47BCC6" d="M46.716,22.998l-0.469-0.082l1.958-2.737l-1.191-3.127l0.496,0.087l1.001,2.622l1.55-2.172l0.469,0.083
		L46.716,22.998z"/>
	<path fill="#47BCC6" d="M21.138,28.623l0.069-0.393c-0.315,0.236-0.729,0.337-1.119,0.268c-0.797-0.141-1.328-0.932-1.181-1.769
		c0.146-0.828,0.917-1.397,1.714-1.257c0.397,0.069,0.74,0.295,0.96,0.634l0.069-0.393l0.42,0.074l-0.513,2.909L21.138,28.623z
		 M20.564,25.912c-0.58-0.102-1.131,0.288-1.236,0.885c-0.106,0.604,0.27,1.164,0.843,1.266c0.572,0.101,1.118-0.298,1.224-0.895
		C21.497,26.587,21.117,26.01,20.564,25.912z"/>
	<path fill="#47BCC6" d="M24.261,26.287l-0.494,2.799l-0.42-0.073l0.494-2.8l-1.097-0.193l0.076-0.437l1.098,0.193l0.247-1.404
		l0.42,0.074l-0.247,1.403l1.096,0.194l-0.076,0.437L24.261,26.287z"/>
	<path fill="#47BCC6" d="M30.034,30.191l0.285-1.614c0.104-0.589-0.146-0.971-0.698-1.067c-0.587-0.104-1.085,0.229-1.186,0.796
		l-0.274,1.556l-0.419-0.074l1.026-5.818l0.419,0.074l-0.572,3.244c0.312-0.215,0.664-0.288,1.075-0.216
		c0.791,0.14,1.193,0.751,1.048,1.579l-0.285,1.615L30.034,30.191z"/>
	<path fill="#47BCC6" d="M32.77,30.734c-0.809-0.143-1.333-0.933-1.184-1.783c0.146-0.829,0.922-1.383,1.739-1.238
		c0.783,0.138,1.311,0.943,1.166,1.765C34.344,30.314,33.574,30.876,32.77,30.734z M33.241,28.147
		c-0.58-0.103-1.131,0.288-1.236,0.885c-0.106,0.604,0.27,1.164,0.842,1.266c0.573,0.101,1.12-0.298,1.226-0.894
		C34.175,28.822,33.793,28.245,33.241,28.147z"/>
	<path fill="#47BCC6" d="M39.643,31.886l0.285-1.614c0.104-0.589-0.146-0.971-0.698-1.068c-0.587-0.104-1.091,0.228-1.19,0.788
		l-0.275,1.563l-0.42-0.074l0.285-1.614c0.104-0.589-0.146-0.971-0.698-1.068c-0.587-0.104-1.085,0.229-1.186,0.796l-0.274,1.557
		l-0.42-0.074l0.513-2.909l0.42,0.074l-0.059,0.335c0.312-0.216,0.663-0.288,1.076-0.216c0.495,0.088,0.87,0.379,1.011,0.801
		c0.321-0.348,0.778-0.485,1.288-0.396c0.789,0.14,1.192,0.751,1.047,1.579l-0.285,1.615L39.643,31.886z"/>
	<path fill="#47BCC6" d="M44.017,31.27l-2.474-0.436c-0.041,0.562,0.325,1.055,0.855,1.147c0.385,0.068,0.767-0.089,1.017-0.405
		l0.347,0.241c-0.357,0.478-0.887,0.698-1.439,0.602c-0.803-0.142-1.334-0.934-1.187-1.77s0.917-1.398,1.72-1.257
		c0.798,0.141,1.335,0.934,1.189,1.755C44.04,31.177,44.032,31.221,44.017,31.27z M42.778,29.829
		c-0.453-0.08-0.874,0.138-1.116,0.575l1.971,0.348C43.564,30.275,43.233,29.91,42.778,29.829z"/>
	<path fill="#47BCC6" d="M17.742,41.219c-0.613-0.108-1.009-0.402-1.273-0.944l0.342-0.262c0.241,0.47,0.521,0.685,1.002,0.77
		c0.476,0.083,0.836-0.041,0.885-0.317c0.04-0.225-0.066-0.319-0.621-0.56c-0.965-0.41-1.144-0.584-1.06-1.063
		c0.094-0.531,0.568-0.77,1.281-0.645c0.53,0.094,0.796,0.268,1.054,0.681l-0.357,0.236c-0.199-0.304-0.369-0.409-0.795-0.484
		c-0.433-0.076-0.716,0.017-0.758,0.257c-0.039,0.218,0.076,0.306,0.814,0.608c0.746,0.304,0.949,0.542,0.864,1.021
		C19.02,41.084,18.49,41.351,17.742,41.219z"/>
	<path fill="#47BCC6" d="M23.371,42.151l-0.482-0.085l-0.45-2.465l-1.269,2.162l-0.481-0.085l-0.6-3.105l0.455,0.08l0.486,2.516
		l1.288-2.202l0.454,0.08l0.459,2.51l1.316-2.197l0.447,0.079L23.371,42.151z"/>
	<path fill="#47BCC6" d="M28.108,41.6l-2.474-0.436c-0.04,0.562,0.326,1.055,0.856,1.148c0.385,0.067,0.767-0.091,1.017-0.406
		l0.347,0.241c-0.358,0.477-0.888,0.698-1.44,0.601c-0.803-0.142-1.333-0.933-1.186-1.769c0.147-0.837,0.917-1.398,1.72-1.257
		c0.798,0.141,1.335,0.933,1.189,1.755C28.133,41.507,28.125,41.55,28.108,41.6z M26.871,40.159
		c-0.454-0.08-0.874,0.138-1.116,0.575l1.971,0.348C27.657,40.605,27.326,40.239,26.871,40.159z"/>
	<path fill="#47BCC6" d="M31.721,42.236l-2.474-0.436c-0.04,0.562,0.326,1.055,0.856,1.148c0.385,0.067,0.767-0.09,1.017-0.406
		l0.347,0.241c-0.358,0.477-0.889,0.698-1.439,0.601c-0.803-0.142-1.334-0.932-1.187-1.769s0.917-1.398,1.72-1.257
		c0.798,0.141,1.335,0.933,1.189,1.755C31.745,42.144,31.737,42.187,31.721,42.236z M30.483,40.796
		c-0.454-0.08-0.874,0.138-1.116,0.575l1.971,0.348C31.27,41.242,30.938,40.876,30.483,40.796z"/>
	<path fill="#47BCC6" d="M33.607,41.069l-0.494,2.8l-0.42-0.074l0.494-2.8l-1.097-0.193l0.076-0.437l1.097,0.193l0.248-1.403
		l0.42,0.074l-0.248,1.403l1.097,0.193l-0.076,0.437L33.607,41.069z"/>
	<path fill="#47BCC6" d="M35.904,44.422c-0.615-0.108-1.01-0.403-1.275-0.945l0.343-0.262c0.241,0.47,0.521,0.685,1.002,0.77
		c0.476,0.084,0.836-0.041,0.885-0.317c0.04-0.225-0.065-0.319-0.621-0.56c-0.965-0.409-1.144-0.584-1.06-1.063
		c0.094-0.531,0.568-0.77,1.281-0.645c0.531,0.094,0.795,0.269,1.054,0.681l-0.357,0.236c-0.199-0.304-0.368-0.409-0.795-0.484
		c-0.433-0.076-0.716,0.017-0.758,0.257c-0.039,0.218,0.075,0.306,0.814,0.608c0.746,0.305,0.949,0.542,0.864,1.021
		C37.182,44.287,36.652,44.554,35.904,44.422z"/>
	<path fill="#47BCC6" d="M15.496,53.958c-0.614-0.108-1.009-0.403-1.273-0.944l0.342-0.263c0.241,0.47,0.521,0.685,1.002,0.77
		c0.476,0.083,0.836-0.041,0.885-0.316c0.04-0.226-0.066-0.319-0.621-0.56c-0.965-0.411-1.144-0.584-1.06-1.064
		c0.094-0.531,0.568-0.77,1.281-0.645c0.53,0.094,0.795,0.268,1.054,0.681l-0.357,0.237c-0.199-0.305-0.369-0.409-0.795-0.484
		c-0.433-0.076-0.716,0.016-0.758,0.256c-0.039,0.219,0.075,0.306,0.814,0.608c0.746,0.304,0.949,0.542,0.864,1.022
		C16.773,53.823,16.244,54.09,15.496,53.958z"/>
	<path fill="#47BCC6" d="M18.844,54.548c-0.804-0.142-1.334-0.933-1.188-1.769c0.148-0.837,0.918-1.398,1.722-1.257
		c0.559,0.099,0.979,0.495,1.157,1.074l-0.412,0.137c-0.121-0.419-0.424-0.704-0.822-0.774c-0.573-0.101-1.119,0.297-1.225,0.895
		c-0.104,0.596,0.271,1.157,0.845,1.258c0.433,0.076,0.843-0.121,1.095-0.526l0.365,0.214
		C20.058,54.364,19.459,54.656,18.844,54.548z"/>
	<path fill="#47BCC6" d="M23.354,55.283l0.285-1.614c0.104-0.59-0.146-0.971-0.697-1.067c-0.588-0.104-1.086,0.228-1.186,0.795
		l-0.274,1.557l-0.42-0.074l1.026-5.818l0.42,0.074l-0.572,3.244c0.312-0.216,0.663-0.289,1.076-0.216
		c0.789,0.139,1.192,0.75,1.047,1.579l-0.285,1.615L23.354,55.283z"/>
	<path fill="#47BCC6" d="M26.09,55.826c-0.81-0.144-1.333-0.934-1.184-1.784c0.146-0.829,0.921-1.383,1.739-1.238
		c0.782,0.138,1.311,0.944,1.165,1.766C27.664,55.405,26.894,55.968,26.09,55.826z M26.562,53.239
		c-0.58-0.103-1.132,0.288-1.237,0.884c-0.106,0.604,0.271,1.165,0.843,1.267c0.573,0.101,1.12-0.298,1.226-0.895
		C27.495,53.913,27.113,53.337,26.562,53.239z"/>
	<path fill="#47BCC6" d="M29.703,56.463c-0.81-0.143-1.333-0.933-1.184-1.783c0.146-0.829,0.921-1.383,1.738-1.239
		c0.783,0.139,1.312,0.944,1.166,1.767C31.277,56.043,30.507,56.604,29.703,56.463z M30.175,53.877
		c-0.58-0.103-1.132,0.287-1.237,0.884c-0.106,0.604,0.271,1.165,0.843,1.266c0.573,0.101,1.119-0.298,1.224-0.894
		C31.107,54.551,30.727,53.974,30.175,53.877z"/>
	<path fill="#47BCC6" d="M32.146,56.834l1.026-5.819l0.42,0.074l-1.026,5.818L32.146,56.834z"/>
	<path fill="#47BCC6" d="M13.25,66.696c-0.614-0.108-1.009-0.403-1.274-0.944l0.343-0.263c0.241,0.47,0.521,0.685,1.002,0.77
		c0.476,0.084,0.836-0.04,0.885-0.316c0.039-0.226-0.066-0.319-0.621-0.56c-0.965-0.41-1.144-0.584-1.06-1.064
		c0.094-0.531,0.568-0.77,1.281-0.644c0.53,0.093,0.795,0.268,1.054,0.681l-0.357,0.236c-0.199-0.305-0.369-0.41-0.795-0.485
		c-0.433-0.076-0.716,0.017-0.758,0.257c-0.039,0.219,0.075,0.306,0.814,0.609c0.746,0.304,0.949,0.542,0.864,1.021
		C14.527,66.562,13.998,66.828,13.25,66.696z"/>
	<path fill="#47BCC6" d="M17.628,67.408l0.059-0.335c-0.304,0.217-0.662,0.288-1.075,0.216c-0.789-0.14-1.193-0.75-1.047-1.58
		l0.284-1.614l0.42,0.074l-0.284,1.614c-0.104,0.59,0.146,0.971,0.697,1.068c0.594,0.104,1.085-0.229,1.185-0.796l0.274-1.557
		l0.42,0.074l-0.513,2.909L17.628,67.408z"/>
	<path fill="#47BCC6" d="M23.484,68.44l0.284-1.614c0.104-0.589-0.146-0.971-0.698-1.068c-0.586-0.104-1.092,0.228-1.19,0.788
		l-0.275,1.563l-0.419-0.074l0.284-1.614c0.104-0.589-0.146-0.971-0.697-1.068c-0.587-0.104-1.086,0.229-1.186,0.796l-0.274,1.557
		l-0.42-0.074l0.513-2.909l0.42,0.074l-0.059,0.335c0.311-0.216,0.663-0.288,1.076-0.216c0.496,0.088,0.868,0.379,1.011,0.801
		c0.32-0.349,0.777-0.485,1.287-0.396c0.79,0.14,1.193,0.75,1.047,1.579l-0.284,1.615L23.484,68.44z"/>
	<path fill="#47BCC6" d="M29.424,69.488l0.284-1.615c0.104-0.589-0.146-0.971-0.698-1.068c-0.586-0.104-1.091,0.229-1.189,0.788
		l-0.275,1.563l-0.42-0.073l0.284-1.615c0.104-0.589-0.146-0.971-0.697-1.068c-0.587-0.103-1.086,0.229-1.186,0.796l-0.274,1.557
		l-0.42-0.073l0.513-2.909l0.42,0.073l-0.059,0.335c0.312-0.215,0.663-0.288,1.076-0.215c0.496,0.087,0.869,0.378,1.011,0.801
		c0.32-0.349,0.778-0.485,1.288-0.396c0.789,0.139,1.192,0.75,1.046,1.579l-0.284,1.614L29.424,69.488z"/>
	<path fill="#47BCC6" d="M33.797,68.872l-2.474-0.437c-0.041,0.562,0.325,1.055,0.855,1.148c0.385,0.068,0.767-0.09,1.017-0.406
		l0.347,0.242c-0.358,0.477-0.888,0.697-1.44,0.601c-0.803-0.142-1.334-0.933-1.186-1.77c0.146-0.836,0.917-1.397,1.72-1.256
		c0.798,0.141,1.335,0.933,1.189,1.755C33.82,68.778,33.812,68.822,33.797,68.872z M32.559,67.431
		c-0.453-0.08-0.874,0.139-1.116,0.576l1.971,0.348C33.345,67.878,33.014,67.511,32.559,67.431z"/>
	<path fill="#47BCC6" d="M36.936,69.013c0.016-0.462-0.302-0.863-0.742-0.941c-0.488-0.086-0.969,0.265-1.059,0.773l-0.282,1.601
		l-0.419-0.074l0.513-2.909l0.419,0.074l-0.054,0.305c0.294-0.195,0.624-0.265,0.959-0.205c0.644,0.113,1.097,0.681,1.098,1.379
		L36.936,69.013z"/>
	<path fill="#47BCC6" d="M13.116,74.565c-0.079-0.284-0.289-0.479-0.562-0.526c-0.392-0.069-0.765,0.21-0.837,0.617l-0.258,1.462
		l0.993,0.175l-0.077,0.437l-0.993-0.175l-0.493,2.8L10.47,79.28l0.493-2.8l-0.93-0.164l0.077-0.437l0.93,0.164l0.258-1.462
		c0.114-0.647,0.712-1.09,1.333-0.98c0.419,0.074,0.749,0.373,0.888,0.81L13.116,74.565z"/>
	<path fill="#47BCC6" d="M14.809,80.046l0.069-0.394c-0.315,0.237-0.729,0.337-1.12,0.268c-0.797-0.14-1.327-0.932-1.18-1.768
		c0.146-0.829,0.916-1.397,1.713-1.258c0.398,0.07,0.741,0.296,0.961,0.635l0.069-0.393l0.42,0.074l-0.513,2.909L14.809,80.046z
		 M14.235,77.335c-0.579-0.102-1.132,0.288-1.236,0.884c-0.106,0.604,0.27,1.165,0.843,1.267c0.573,0.101,1.118-0.298,1.223-0.895
		C15.168,78.009,14.788,77.433,14.235,77.335z"/>
	<path fill="#47BCC6" d="M17.405,80.563c-0.614-0.108-1.009-0.403-1.274-0.944l0.343-0.262c0.241,0.47,0.521,0.684,1.002,0.769
		c0.476,0.084,0.836-0.04,0.885-0.316c0.04-0.226-0.066-0.319-0.621-0.56c-0.966-0.41-1.144-0.584-1.06-1.064
		c0.094-0.53,0.568-0.77,1.281-0.644c0.529,0.094,0.795,0.268,1.054,0.681l-0.358,0.236c-0.199-0.305-0.368-0.409-0.794-0.484
		c-0.433-0.076-0.716,0.016-0.759,0.256c-0.038,0.219,0.076,0.307,0.815,0.609c0.746,0.304,0.948,0.542,0.864,1.021
		C18.683,80.429,18.153,80.695,17.405,80.563z"/>
	<path fill="#47BCC6" d="M21.782,81.275l0.284-1.615c0.104-0.589-0.145-0.97-0.696-1.067c-0.588-0.104-1.086,0.229-1.186,0.796
		l-0.274,1.557l-0.42-0.074l1.025-5.818l0.42,0.074l-0.571,3.243c0.312-0.215,0.663-0.287,1.075-0.215
		c0.789,0.14,1.193,0.75,1.047,1.579l-0.284,1.615L21.782,81.275z"/>
	<path fill="#47BCC6" d="M23.349,81.552l0.513-2.909l0.42,0.074l-0.513,2.909L23.349,81.552z M24.272,77.537
		c-0.217-0.038-0.359-0.25-0.319-0.477c0.039-0.225,0.246-0.376,0.47-0.336c0.21,0.036,0.351,0.257,0.312,0.475
		C24.695,77.425,24.489,77.575,24.272,77.537z"/>
	<path fill="#47BCC6" d="M26.188,82.112c-0.81-0.143-1.334-0.933-1.184-1.783c0.146-0.829,0.921-1.383,1.739-1.238
		c0.783,0.138,1.311,0.943,1.165,1.766C27.762,81.692,26.993,82.254,26.188,82.112z M26.66,79.526
		c-0.58-0.103-1.132,0.287-1.236,0.884c-0.106,0.604,0.27,1.165,0.842,1.266c0.573,0.102,1.12-0.298,1.225-0.894
		C27.594,80.2,27.212,79.623,26.66,79.526z"/>
	<path fill="#47BCC6" d="M30.812,82.867l0.284-1.614c0.104-0.59-0.146-0.971-0.697-1.067c-0.588-0.104-1.086,0.228-1.186,0.795
		l-0.274,1.557l-0.419-0.074l0.513-2.909l0.419,0.074l-0.059,0.335c0.312-0.216,0.664-0.288,1.074-0.216
		c0.791,0.14,1.194,0.751,1.048,1.579l-0.284,1.615L30.812,82.867z"/>
</g>
</svg>
